{
    "asset" : {
        "generator" : "Khronos glTF Blender I/O v1.3.48",
        "version" : "2.0"
    },
    "scene" : 0,
    "scenes" : [
        {
            "name" : "Scene",
            "nodes" : [
                0
            ]
        }
    ],
    "nodes" : [
        {
            "mesh" : 0,
            "name" : "Cylinder",
            "scale" : [
                0.18271760642528534,
                1.9948524236679077,
                0.18271760642528534
            ]
        }
    ],
    "materials" : [
        {
            "doubleSided" : true,
            "emissiveFactor" : [
                1,
                0,
                0.01963919587433338
            ],
            "name" : "column",
            "pbrMetallicRoughness" : {
                "baseColorFactor" : [
                    0.8000000715255737,
                    0,
                    0.01904463768005371,
                    1
                ],
                "metallicFactor" : 0,
                "roughnessFactor" : 0
            }
        },
        {
            "doubleSided" : true,
            "emissiveFactor" : [
                0,
                0,
                0
            ],
            "name" : "spikes",
            "pbrMetallicRoughness" : {
                "baseColorFactor" : [
                    0.23301586508750916,
                    0.23301586508750916,
                    0.23301586508750916,
                    1
                ],
                "metallicFactor" : 0.7234042286872864,
                "roughnessFactor" : 0.25886523723602295
            }
        }
    ],
    "meshes" : [
        {
            "name" : "Cylinder.003",
            "primitives" : [
                {
                    "attributes" : {
                        "POSITION" : 0,
                        "NORMAL" : 1,
                        "TEXCOORD_0" : 2
                    },
                    "indices" : 3,
                    "material" : 0
                },
                {
                    "attributes" : {
                        "POSITION" : 4,
                        "NORMAL" : 5,
                        "TEXCOORD_0" : 6
                    },
                    "indices" : 7,
                    "material" : 1
                }
            ]
        }
    ],
    "accessors" : [
        {
            "bufferView" : 0,
            "componentType" : 5126,
            "count" : 1216,
            "max" : [
                1,
                1,
                1
            ],
            "min" : [
                -1,
                0.00138932466506958,
                -1
            ],
            "type" : "VEC3"
        },
        {
            "bufferView" : 1,
            "componentType" : 5126,
            "count" : 1216,
            "type" : "VEC3"
        },
        {
            "bufferView" : 2,
            "componentType" : 5126,
            "count" : 1216,
            "type" : "VEC2"
        },
        {
            "bufferView" : 3,
            "componentType" : 5123,
            "count" : 1908,
            "type" : "SCALAR"
        },
        {
            "bufferView" : 4,
            "componentType" : 5126,
            "count" : 5412,
            "max" : [
                1.6288450956344604,
                0.9444444179534912,
                1.7059544324874878
            ],
            "min" : [
                -1.662577748298645,
                0.11111080646514893,
                -1.6675244569778442
            ],
            "type" : "VEC3"
        },
        {
            "bufferView" : 5,
            "componentType" : 5126,
            "count" : 5412,
            "type" : "VEC3"
        },
        {
            "bufferView" : 6,
            "componentType" : 5126,
            "count" : 5412,
            "type" : "VEC2"
        },
        {
            "bufferView" : 7,
            "componentType" : 5123,
            "count" : 9132,
            "type" : "SCALAR"
        }
    ],
    "bufferViews" : [
        {
            "buffer" : 0,
            "byteLength" : 14592,
            "byteOffset" : 0
        },
        {
            "buffer" : 0,
            "byteLength" : 14592,
            "byteOffset" : 14592
        },
        {
            "buffer" : 0,
            "byteLength" : 9728,
            "byteOffset" : 29184
        },
        {
            "buffer" : 0,
            "byteLength" : 3816,
            "byteOffset" : 38912
        },
        {
            "buffer" : 0,
            "byteLength" : 64944,
            "byteOffset" : 42728
        },
        {
            "buffer" : 0,
            "byteLength" : 64944,
            "byteOffset" : 107672
        },
        {
            "buffer" : 0,
            "byteLength" : 43296,
            "byteOffset" : 172616
        },
        {
            "buffer" : 0,
            "byteLength" : 18264,
            "byteOffset" : 215912
        }
    ],
    "buffers" : [
        {
            "byteLength" : 234176,
            "uri" : "data:application/octet-stream;base64,"
        }
    ]
}
