{
    "asset" : {
        "generator" : "Khronos glTF Blender I/O v1.3.48",
        "version" : "2.0"
    },
    "scene" : 0,
    "scenes" : [
        {
            "name" : "Scene",
            "nodes" : [
                0,
                1,
                2,
                3,
                4,
                5,
                6
            ]
        }
    ],
    "nodes" : [
        {
            "mesh" : 0,
            "name" : "Torus.001",
            "rotation" : [
                0.7071068286895752,
                0,
                0,
                0.7071067094802856
            ]
        },
        {
            "mesh" : 1,
            "name" : "Icosphere.001",
            "rotation" : [
                0.7071068286895752,
                0,
                0,
                0.7071067094802856
            ]
        },
        {
            "mesh" : 2,
            "name" : "Cone.001",
            "rotation" : [
                0.7071068286895752,
                0,
                0,
                0.7071067094802856
            ]
        },
        {
            "mesh" : 3,
            "name" : "Torus.002",
            "rotation" : [
                0.7071068286895752,
                0,
                0,
                0.7071067094802856
            ]
        },
        {
            "mesh" : 4,
            "name" : "Cylinder.002_Cylinder.024",
            "rotation" : [
                0.7071068286895752,
                0,
                0,
                0.7071067094802856
            ]
        },
        {
            "mesh" : 5,
            "name" : "Cylinder_Cylinder.025",
            "rotation" : [
                0.7071068286895752,
                0,
                0,
                0.7071067094802856
            ]
        },
        {
            "mesh" : 6,
            "name" : "Cube",
            "rotation" : [
                0.7071068286895752,
                0,
                0,
                0.7071067094802856
            ]
        }
    ],
    "materials" : [
        {
            "doubleSided" : true,
            "emissiveFactor" : [
                0,
                0,
                0
            ],
            "name" : "None",
            "pbrMetallicRoughness" : {
                "baseColorFactor" : [
                    0.800000011920929,
                    0.800000011920929,
                    0.800000011920929,
                    1
                ],
                "metallicFactor" : 0,
                "roughnessFactor" : 0.2546440064907074
            }
        }
    ],
    "meshes" : [
        {
            "name" : "Torus.001",
            "primitives" : [
                {
                    "attributes" : {
                        "POSITION" : 0,
                        "NORMAL" : 1,
                        "TEXCOORD_0" : 2
                    },
                    "indices" : 3,
                    "material" : 0
                }
            ]
        },
        {
            "name" : "Icosphere.001",
            "primitives" : [
                {
                    "attributes" : {
                        "POSITION" : 4,
                        "NORMAL" : 5,
                        "TEXCOORD_0" : 6
                    },
                    "indices" : 7,
                    "material" : 0
                }
            ]
        },
        {
            "name" : "Cone.001",
            "primitives" : [
                {
                    "attributes" : {
                        "POSITION" : 8,
                        "NORMAL" : 9,
                        "TEXCOORD_0" : 10
                    },
                    "indices" : 11,
                    "material" : 0
                }
            ]
        },
        {
            "name" : "Torus.002",
            "primitives" : [
                {
                    "attributes" : {
                        "POSITION" : 12,
                        "NORMAL" : 13,
                        "TEXCOORD_0" : 14
                    },
                    "indices" : 15,
                    "material" : 0
                }
            ]
        },
        {
            "name" : "Cylinder.002_Cylinder.024",
            "primitives" : [
                {
                    "attributes" : {
                        "POSITION" : 16,
                        "NORMAL" : 17,
                        "TEXCOORD_0" : 18
                    },
                    "indices" : 19,
                    "material" : 0
                }
            ]
        },
        {
            "name" : "Cylinder_Cylinder.025",
            "primitives" : [
                {
                    "attributes" : {
                        "POSITION" : 20,
                        "NORMAL" : 21,
                        "TEXCOORD_0" : 22
                    },
                    "indices" : 23,
                    "material" : 0
                }
            ]
        },
        {
            "name" : "Cube",
            "primitives" : [
                {
                    "attributes" : {
                        "POSITION" : 24,
                        "NORMAL" : 25,
                        "TEXCOORD_0" : 26
                    },
                    "indices" : 27,
                    "material" : 0
                }
            ]
        }
    ],
    "accessors" : [
        {
            "bufferView" : 0,
            "componentType" : 5126,
            "count" : 2425,
            "max" : [
                1.975262999534607,
                1.8476120233535767,
                0.3571699857711792
            ],
            "min" : [
                -1.728355050086975,
                -1.8476120233535767,
                -0.3571699857711792
            ],
            "type" : "VEC3"
        },
        {
            "bufferView" : 1,
            "componentType" : 5126,
            "count" : 2425,
            "type" : "VEC3"
        },
        {
            "bufferView" : 2,
            "componentType" : 5126,
            "count" : 2425,
            "type" : "VEC2"
        },
        {
            "bufferView" : 3,
            "componentType" : 5123,
            "count" : 13824,
            "type" : "SCALAR"
        },
        {
            "bufferView" : 4,
            "componentType" : 5126,
            "count" : 480,
            "max" : [
                1.107524037361145,
                1.1413400173187256,
                -0.02601199969649315
            ],
            "min" : [
                -1.107524037361145,
                -1.1413400173187256,
                -0.18007199466228485
            ],
            "type" : "VEC3"
        },
        {
            "bufferView" : 5,
            "componentType" : 5126,
            "count" : 480,
            "type" : "VEC3"
        },
        {
            "bufferView" : 6,
            "componentType" : 5126,
            "count" : 480,
            "type" : "VEC2"
        },
        {
            "bufferView" : 7,
            "componentType" : 5123,
            "count" : 480,
            "type" : "SCALAR"
        },
        {
            "bufferView" : 8,
            "componentType" : 5126,
            "count" : 24,
            "max" : [
                -1.4923189878463745,
                0.658394992351532,
                0.1599999964237213
            ],
            "min" : [
                -2.0359199047088623,
                -0.6810259819030762,
                -0.1599999964237213
            ],
            "type" : "VEC3"
        },
        {
            "bufferView" : 9,
            "componentType" : 5126,
            "count" : 24,
            "type" : "VEC3"
        },
        {
            "bufferView" : 10,
            "componentType" : 5126,
            "count" : 24,
            "type" : "VEC2"
        },
        {
            "bufferView" : 11,
            "componentType" : 5123,
            "count" : 24,
            "type" : "SCALAR"
        },
        {
            "bufferView" : 12,
            "componentType" : 5126,
            "count" : 1248,
            "max" : [
                2.277519941329956,
                2.261080026626587,
                0.031125999987125397
            ],
            "min" : [
                -2.2775819301605225,
                -2.261117935180664,
                -0.031125999987125397
            ],
            "type" : "VEC3"
        },
        {
            "bufferView" : 13,
            "componentType" : 5126,
            "count" : 1248,
            "type" : "VEC3"
        },
        {
            "bufferView" : 14,
            "componentType" : 5126,
            "count" : 1248,
            "type" : "VEC2"
        },
        {
            "bufferView" : 15,
            "componentType" : 5123,
            "count" : 1872,
            "type" : "SCALAR"
        },
        {
            "bufferView" : 16,
            "componentType" : 5126,
            "count" : 17342,
            "max" : [
                1.5317310094833374,
                1.5413399934768677,
                0.13095100224018097
            ],
            "min" : [
                -1.5303020477294922,
                -1.5206940174102783,
                -0.22449800372123718
            ],
            "type" : "VEC3"
        },
        {
            "bufferView" : 17,
            "componentType" : 5126,
            "count" : 17342,
            "type" : "VEC3"
        },
        {
            "bufferView" : 18,
            "componentType" : 5126,
            "count" : 17342,
            "type" : "VEC2"
        },
        {
            "bufferView" : 19,
            "componentType" : 5123,
            "count" : 32742,
            "type" : "SCALAR"
        },
        {
            "bufferView" : 20,
            "componentType" : 5126,
            "count" : 576,
            "max" : [
                2.2078490257263184,
                0.02279300056397915,
                0.0200399998575449
            ],
            "min" : [
                -2.1133410930633545,
                -0.0200399998575449,
                -0.21417899429798126
            ],
            "type" : "VEC3"
        },
        {
            "bufferView" : 21,
            "componentType" : 5126,
            "count" : 576,
            "type" : "VEC3"
        },
        {
            "bufferView" : 22,
            "componentType" : 5126,
            "count" : 576,
            "type" : "VEC2"
        },
        {
            "bufferView" : 23,
            "componentType" : 5123,
            "count" : 1116,
            "type" : "SCALAR"
        },
        {
            "bufferView" : 24,
            "componentType" : 5126,
            "count" : 8158,
            "max" : [
                2.3336620330810547,
                2.3380749225616455,
                0.01936200074851513
            ],
            "min" : [
                -2.3392040729522705,
                -2.3409600257873535,
                -0.014361999928951263
            ],
            "type" : "VEC3"
        },
        {
            "bufferView" : 25,
            "componentType" : 5126,
            "count" : 8158,
            "type" : "VEC3"
        },
        {
            "bufferView" : 26,
            "componentType" : 5126,
            "count" : 8158,
            "type" : "VEC2"
        },
        {
            "bufferView" : 27,
            "componentType" : 5123,
            "count" : 48552,
            "type" : "SCALAR"
        }
    ],
    "bufferViews" : [
        {
            "buffer" : 0,
            "byteLength" : 29100,
            "byteOffset" : 0
        },
        {
            "buffer" : 0,
            "byteLength" : 29100,
            "byteOffset" : 29100
        },
        {
            "buffer" : 0,
            "byteLength" : 19400,
            "byteOffset" : 58200
        },
        {
            "buffer" : 0,
            "byteLength" : 27648,
            "byteOffset" : 77600
        },
        {
            "buffer" : 0,
            "byteLength" : 5760,
            "byteOffset" : 105248
        },
        {
            "buffer" : 0,
            "byteLength" : 5760,
            "byteOffset" : 111008
        },
        {
            "buffer" : 0,
            "byteLength" : 3840,
            "byteOffset" : 116768
        },
        {
            "buffer" : 0,
            "byteLength" : 960,
            "byteOffset" : 120608
        },
        {
            "buffer" : 0,
            "byteLength" : 288,
            "byteOffset" : 121568
        },
        {
            "buffer" : 0,
            "byteLength" : 288,
            "byteOffset" : 121856
        },
        {
            "buffer" : 0,
            "byteLength" : 192,
            "byteOffset" : 122144
        },
        {
            "buffer" : 0,
            "byteLength" : 48,
            "byteOffset" : 122336
        },
        {
            "buffer" : 0,
            "byteLength" : 14976,
            "byteOffset" : 122384
        },
        {
            "buffer" : 0,
            "byteLength" : 14976,
            "byteOffset" : 137360
        },
        {
            "buffer" : 0,
            "byteLength" : 9984,
            "byteOffset" : 152336
        },
        {
            "buffer" : 0,
            "byteLength" : 3744,
            "byteOffset" : 162320
        },
        {
            "buffer" : 0,
            "byteLength" : 208104,
            "byteOffset" : 166064
        },
        {
            "buffer" : 0,
            "byteLength" : 208104,
            "byteOffset" : 374168
        },
        {
            "buffer" : 0,
            "byteLength" : 138736,
            "byteOffset" : 582272
        },
        {
            "buffer" : 0,
            "byteLength" : 65484,
            "byteOffset" : 721008
        },
        {
            "buffer" : 0,
            "byteLength" : 6912,
            "byteOffset" : 786492
        },
        {
            "buffer" : 0,
            "byteLength" : 6912,
            "byteOffset" : 793404
        },
        {
            "buffer" : 0,
            "byteLength" : 4608,
            "byteOffset" : 800316
        },
        {
            "buffer" : 0,
            "byteLength" : 2232,
            "byteOffset" : 804924
        },
        {
            "buffer" : 0,
            "byteLength" : 97896,
            "byteOffset" : 807156
        },
        {
            "buffer" : 0,
            "byteLength" : 97896,
            "byteOffset" : 905052
        },
        {
            "buffer" : 0,
            "byteLength" : 65264,
            "byteOffset" : 1002948
        },
        {
            "buffer" : 0,
            "byteLength" : 97104,
            "byteOffset" : 1068212
        }
    ],
    "buffers" : [
        {
            "byteLength" : 1165316,
            "uri" : "data:application/octet-stream;base64,"
        }
    ]
}
