{
    "asset" : {
        "generator" : "Khronos glTF Blender I/O v1.3.48",
        "version" : "2.0"
    },
    "scene" : 0,
    "scenes" : [
        {
            "name" : "Scene",
            "nodes" : [
                0
            ]
        }
    ],
    "nodes" : [
        {
            "mesh" : 0,
            "name" : "Cylinder"
        }
    ],
    "materials" : [
        {
            "doubleSided" : true,
            "emissiveFactor" : [
                0,
                0,
                0
            ],
            "name" : "Material",
            "pbrMetallicRoughness" : {
                "baseColorTexture" : {
                    "index" : 0,
                    "texCoord" : 0
                },
                "metallicFactor" : 0.7659574747085571,
                "roughnessFactor" : 0.1808510720729828
            }
        },
        {
            "doubleSided" : true,
            "emissiveFactor" : [
                0,
                0,
                0
            ],
            "name" : "barrel_head",
            "pbrMetallicRoughness" : {
                "baseColorFactor" : [
                    0.07323579490184784,
                    0.07323579490184784,
                    0.07323579490184784,
                    1
                ],
                "metallicFactor" : 0.9716312289237976,
                "roughnessFactor" : 0.1595744788646698
            }
        }
    ],
    "meshes" : [
        {
            "name" : "Cylinder.002",
            "primitives" : [
                {
                    "attributes" : {
                        "POSITION" : 0,
                        "NORMAL" : 1,
                        "TEXCOORD_0" : 2
                    },
                    "indices" : 3,
                    "material" : 0
                },
                {
                    "attributes" : {
                        "POSITION" : 4,
                        "NORMAL" : 5,
                        "TEXCOORD_0" : 6
                    },
                    "indices" : 7,
                    "material" : 1
                }
            ]
        }
    ],
    "textures" : [
        {
            "source" : 0
        }
    ],
    "images" : [
        {
            "bufferView" : 4,
            "mimeType" : "image/png",
            "name" : "explosive"
        }
    ],
    "accessors" : [
        {
            "bufferView" : 0,
            "componentType" : 5126,
            "count" : 2981,
            "max" : [
                1.0523828268051147,
                1.0000001192092896,
                1.0523828268051147
            ],
            "min" : [
                -1.0523828268051147,
                -1,
                -1.0523828268051147
            ],
            "type" : "VEC3"
        },
        {
            "bufferView" : 1,
            "componentType" : 5126,
            "count" : 2981,
            "type" : "VEC3"
        },
        {
            "bufferView" : 2,
            "componentType" : 5126,
            "count" : 2981,
            "type" : "VEC2"
        },
        {
            "bufferView" : 3,
            "componentType" : 5123,
            "count" : 4890,
            "type" : "SCALAR"
        },
        {
            "bufferView" : 5,
            "componentType" : 5126,
            "count" : 160,
            "max" : [
                0.05246943235397339,
                1.0280048847198486,
                -0.797024130821228
            ],
            "min" : [
                -0.05246943235397339,
                0.9999999403953552,
                -0.9019631147384644
            ],
            "type" : "VEC3"
        },
        {
            "bufferView" : 6,
            "componentType" : 5126,
            "count" : 160,
            "type" : "VEC3"
        },
        {
            "bufferView" : 7,
            "componentType" : 5126,
            "count" : 160,
            "type" : "VEC2"
        },
        {
            "bufferView" : 8,
            "componentType" : 5123,
            "count" : 282,
            "type" : "SCALAR"
        }
    ],
    "bufferViews" : [
        {
            "buffer" : 0,
            "byteLength" : 35772,
            "byteOffset" : 0
        },
        {
            "buffer" : 0,
            "byteLength" : 35772,
            "byteOffset" : 35772
        },
        {
            "buffer" : 0,
            "byteLength" : 23848,
            "byteOffset" : 71544
        },
        {
            "buffer" : 0,
            "byteLength" : 9780,
            "byteOffset" : 95392
        },
        {
            "buffer" : 0,
            "byteLength" : 9148,
            "byteOffset" : 105172
        },
        {
            "buffer" : 0,
            "byteLength" : 1920,
            "byteOffset" : 114320
        },
        {
            "buffer" : 0,
            "byteLength" : 1920,
            "byteOffset" : 116240
        },
        {
            "buffer" : 0,
            "byteLength" : 1280,
            "byteOffset" : 118160
        },
        {
            "buffer" : 0,
            "byteLength" : 564,
            "byteOffset" : 119440
        }
    ],
    "buffers" : [
        {
            "byteLength" : 120004,
            "uri" : "data:application/octet-stream;base64,"
        }
    ]
}
