{
    "asset" : {
        "generator" : "Khronos glTF Blender I/O v1.3.48",
        "version" : "2.0"
    },
    "scene" : 0,
    "scenes" : [
        {
            "name" : "Scene",
            "nodes" : [
                0,
                1,
                2,
                3,
                4
            ]
        }
    ],
    "nodes" : [
        {
            "name" : "Camera",
            "rotation" : [
                0.483536034822464,
                0.33687159419059753,
                -0.20870360732078552,
                0.7804827094078064
            ],
            "translation" : [
                7.358891487121582,
                4.958309173583984,
                6.925790786743164
            ]
        },
        {
            "mesh" : 0,
            "name" : "gun",
            "scale" : [
                8.51866340637207,
                1,
                1
            ]
        },
        {
            "mesh" : 1,
            "name" : "Sphere",
            "translation" : [
                -0.8070061206817627,
                2.8150529861450195,
                0.0005661998875439167
            ]
        },
        {
            "mesh" : 2,
            "name" : "Text",
            "rotation" : [
                0.7071068286895752,
                0,
                0,
                0.7071068286895752
            ],
            "translation" : [
                2.4329423904418945,
                -0.30040740966796875,
                1.2726778984069824
            ]
        },
        {
            "mesh" : 2,
            "name" : "Text.001",
            "rotation" : [
                0.7071068286895752,
                0,
                0,
                0.7071068286895752
            ],
            "translation" : [
                2.4329423904418945,
                -0.30040740966796875,
                -1.286884069442749
            ]
        }
    ],
    "materials" : [
        {
            "doubleSided" : true,
            "emissiveFactor" : [
                0,
                0,
                0
            ],
            "name" : "base_fgc",
            "pbrMetallicRoughness" : {
                "baseColorFactor" : [
                    0.2996179163455963,
                    0.2996179163455963,
                    0.2996179163455963,
                    1
                ],
                "metallicFactor" : 0.6318181753158569,
                "roughnessFactor" : 0.09090910106897354
            }
        },
        {
            "doubleSided" : true,
            "emissiveFactor" : [
                0,
                0,
                0
            ],
            "name" : "tip_fgc",
            "pbrMetallicRoughness" : {
                "baseColorFactor" : [
                    1,
                    0.0023914079647511244,
                    0,
                    1
                ],
                "metallicFactor" : 0.7454545497894287,
                "roughnessFactor" : 0.7227272987365723
            }
        },
        {
            "doubleSided" : true,
            "emissiveFactor" : [
                0,
                1,
                0
            ],
            "name" : "glow_fgc",
            "pbrMetallicRoughness" : {
                "baseColorFactor" : [
                    0.009533633477985859,
                    1,
                    0.005287637002766132,
                    1
                ],
                "metallicFactor" : 0,
                "roughnessFactor" : 0
            }
        },
        {
            "doubleSided" : true,
            "emissiveFactor" : [
                0,
                0,
                0
            ],
            "name" : "blue_fgc",
            "pbrMetallicRoughness" : {
                "baseColorFactor" : [
                    0.0004154390189796686,
                    0.0033782515674829483,
                    0.22392044961452484,
                    1
                ],
                "metallicFactor" : 0.6028369069099426,
                "roughnessFactor" : 0.27304965257644653
            }
        },
        {
            "doubleSided" : true,
            "emissiveFactor" : [
                0,
                0,
                0
            ],
            "name" : "handle_fgc",
            "pbrMetallicRoughness" : {
                "baseColorFactor" : [
                    0.252942830324173,
                    0.10182389616966248,
                    0.017800604924559593,
                    1
                ],
                "metallicFactor" : 0,
                "roughnessFactor" : 0.7772727012634277
            }
        },
        {
            "doubleSided" : true,
            "emissiveFactor" : [
                0,
                0,
                0
            ],
            "name" : "black_fgc",
            "pbrMetallicRoughness" : {
                "baseColorFactor" : [
                    0,
                    0,
                    0,
                    1
                ],
                "metallicFactor" : 0.699999988079071,
                "roughnessFactor" : 0.7590909004211426
            }
        }
    ],
    "meshes" : [
        {
            "name" : "Cube.001",
            "primitives" : [
                {
                    "attributes" : {
                        "POSITION" : 0,
                        "NORMAL" : 1,
                        "TEXCOORD_0" : 2
                    },
                    "indices" : 3,
                    "material" : 0
                },
                {
                    "attributes" : {
                        "POSITION" : 4,
                        "NORMAL" : 5,
                        "TEXCOORD_0" : 6
                    },
                    "indices" : 7,
                    "material" : 1
                },
                {
                    "attributes" : {
                        "POSITION" : 8,
                        "NORMAL" : 9,
                        "TEXCOORD_0" : 10
                    },
                    "indices" : 11,
                    "material" : 2
                },
                {
                    "attributes" : {
                        "POSITION" : 12,
                        "NORMAL" : 13,
                        "TEXCOORD_0" : 14
                    },
                    "indices" : 15,
                    "material" : 3
                },
                {
                    "attributes" : {
                        "POSITION" : 16,
                        "NORMAL" : 17,
                        "TEXCOORD_0" : 18
                    },
                    "indices" : 19,
                    "material" : 4
                },
                {
                    "attributes" : {
                        "POSITION" : 20,
                        "NORMAL" : 21,
                        "TEXCOORD_0" : 22
                    },
                    "indices" : 23,
                    "material" : 5
                }
            ]
        },
        {
            "name" : "Sphere",
            "primitives" : [
                {
                    "attributes" : {
                        "POSITION" : 24,
                        "NORMAL" : 25,
                        "TEXCOORD_0" : 26
                    },
                    "indices" : 27,
                    "material" : 2
                }
            ]
        },
        {
            "name" : "Text",
            "primitives" : [
                {
                    "attributes" : {
                        "POSITION" : 28,
                        "NORMAL" : 29,
                        "TEXCOORD_0" : 30
                    },
                    "indices" : 31,
                    "material" : 5
                }
            ]
        }
    ],
    "accessors" : [
        {
            "bufferView" : 0,
            "componentType" : 5126,
            "count" : 273,
            "max" : [
                0.7857616543769836,
                2.1003661155700684,
                1.267314076423645
            ],
            "min" : [
                -1,
                -1.1590187549591064,
                -1.2794647216796875
            ],
            "type" : "VEC3"
        },
        {
            "bufferView" : 1,
            "componentType" : 5126,
            "count" : 273,
            "type" : "VEC3"
        },
        {
            "bufferView" : 2,
            "componentType" : 5126,
            "count" : 273,
            "type" : "VEC2"
        },
        {
            "bufferView" : 3,
            "componentType" : 5123,
            "count" : 444,
            "type" : "SCALAR"
        },
        {
            "bufferView" : 4,
            "componentType" : 5126,
            "count" : 30,
            "max" : [
                0.8150826096534729,
                1.2789103984832764,
                0.707095205783844
            ],
            "min" : [
                0.7627206444740295,
                -0.27944111824035645,
                -0.7192457318305969
            ],
            "type" : "VEC3"
        },
        {
            "bufferView" : 5,
            "componentType" : 5126,
            "count" : 30,
            "type" : "VEC3"
        },
        {
            "bufferView" : 6,
            "componentType" : 5126,
            "count" : 30,
            "type" : "VEC2"
        },
        {
            "bufferView" : 7,
            "componentType" : 5123,
            "count" : 48,
            "type" : "SCALAR"
        },
        {
            "bufferView" : 8,
            "componentType" : 5126,
            "count" : 60,
            "max" : [
                0.7049849629402161,
                2.9201550483703613,
                1.1864771842956543
            ],
            "min" : [
                -0.9191631078720093,
                1.6115140914916992,
                -1.1986278295516968
            ],
            "type" : "VEC3"
        },
        {
            "bufferView" : 9,
            "componentType" : 5126,
            "count" : 60,
            "type" : "VEC3"
        },
        {
            "bufferView" : 10,
            "componentType" : 5126,
            "count" : 60,
            "type" : "VEC2"
        },
        {
            "bufferView" : 11,
            "componentType" : 5123,
            "count" : 96,
            "type" : "SCALAR"
        },
        {
            "bufferView" : 12,
            "componentType" : 5126,
            "count" : 32,
            "max" : [
                -0.005651980638504028,
                4.074744701385498,
                1.0501272678375244
            ],
            "min" : [
                -0.3333333730697632,
                1.92710280418396,
                -1.0622777938842773
            ],
            "type" : "VEC3"
        },
        {
            "bufferView" : 13,
            "componentType" : 5126,
            "count" : 32,
            "type" : "VEC3"
        },
        {
            "bufferView" : 14,
            "componentType" : 5126,
            "count" : 32,
            "type" : "VEC2"
        },
        {
            "bufferView" : 15,
            "componentType" : 5123,
            "count" : 48,
            "type" : "SCALAR"
        },
        {
            "bufferView" : 16,
            "componentType" : 5126,
            "count" : 222,
            "max" : [
                -0.33572348952293396,
                -1.1590187549591064,
                1
            ],
            "min" : [
                -0.8234184980392456,
                -6.859493255615234,
                -1
            ],
            "type" : "VEC3"
        },
        {
            "bufferView" : 17,
            "componentType" : 5126,
            "count" : 222,
            "type" : "VEC3"
        },
        {
            "bufferView" : 18,
            "componentType" : 5126,
            "count" : 222,
            "type" : "VEC2"
        },
        {
            "bufferView" : 19,
            "componentType" : 5123,
            "count" : 408,
            "type" : "SCALAR"
        },
        {
            "bufferView" : 20,
            "componentType" : 5126,
            "count" : 296,
            "max" : [
                0.6629642248153687,
                -1,
                0.7465230822563171
            ],
            "min" : [
                0.09444130957126617,
                -6.744813919067383,
                -0.7586737275123596
            ],
            "type" : "VEC3"
        },
        {
            "bufferView" : 21,
            "componentType" : 5126,
            "count" : 296,
            "type" : "VEC3"
        },
        {
            "bufferView" : 22,
            "componentType" : 5126,
            "count" : 296,
            "type" : "VEC2"
        },
        {
            "bufferView" : 23,
            "componentType" : 5123,
            "count" : 444,
            "type" : "SCALAR"
        },
        {
            "bufferView" : 24,
            "componentType" : 5126,
            "count" : 1984,
            "max" : [
                1.000000238418579,
                1,
                1.0000003576278687
            ],
            "min" : [
                -0.9999998211860657,
                -1,
                -1
            ],
            "type" : "VEC3"
        },
        {
            "bufferView" : 25,
            "componentType" : 5126,
            "count" : 1984,
            "type" : "VEC3"
        },
        {
            "bufferView" : 26,
            "componentType" : 5126,
            "count" : 1984,
            "type" : "VEC2"
        },
        {
            "bufferView" : 27,
            "componentType" : 5123,
            "count" : 2880,
            "type" : "SCALAR"
        },
        {
            "bufferView" : 28,
            "componentType" : 5126,
            "count" : 415,
            "max" : [
                3.2100000381469727,
                0,
                0.009000000543892384
            ],
            "min" : [
                0.07600000500679016,
                0,
                -0.6910000443458557
            ],
            "type" : "VEC3"
        },
        {
            "bufferView" : 29,
            "componentType" : 5126,
            "count" : 415,
            "type" : "VEC3"
        },
        {
            "bufferView" : 30,
            "componentType" : 5126,
            "count" : 415,
            "type" : "VEC2"
        },
        {
            "bufferView" : 31,
            "componentType" : 5123,
            "count" : 912,
            "type" : "SCALAR"
        }
    ],
    "bufferViews" : [
        {
            "buffer" : 0,
            "byteLength" : 3276,
            "byteOffset" : 0
        },
        {
            "buffer" : 0,
            "byteLength" : 3276,
            "byteOffset" : 3276
        },
        {
            "buffer" : 0,
            "byteLength" : 2184,
            "byteOffset" : 6552
        },
        {
            "buffer" : 0,
            "byteLength" : 888,
            "byteOffset" : 8736
        },
        {
            "buffer" : 0,
            "byteLength" : 360,
            "byteOffset" : 9624
        },
        {
            "buffer" : 0,
            "byteLength" : 360,
            "byteOffset" : 9984
        },
        {
            "buffer" : 0,
            "byteLength" : 240,
            "byteOffset" : 10344
        },
        {
            "buffer" : 0,
            "byteLength" : 96,
            "byteOffset" : 10584
        },
        {
            "buffer" : 0,
            "byteLength" : 720,
            "byteOffset" : 10680
        },
        {
            "buffer" : 0,
            "byteLength" : 720,
            "byteOffset" : 11400
        },
        {
            "buffer" : 0,
            "byteLength" : 480,
            "byteOffset" : 12120
        },
        {
            "buffer" : 0,
            "byteLength" : 192,
            "byteOffset" : 12600
        },
        {
            "buffer" : 0,
            "byteLength" : 384,
            "byteOffset" : 12792
        },
        {
            "buffer" : 0,
            "byteLength" : 384,
            "byteOffset" : 13176
        },
        {
            "buffer" : 0,
            "byteLength" : 256,
            "byteOffset" : 13560
        },
        {
            "buffer" : 0,
            "byteLength" : 96,
            "byteOffset" : 13816
        },
        {
            "buffer" : 0,
            "byteLength" : 2664,
            "byteOffset" : 13912
        },
        {
            "buffer" : 0,
            "byteLength" : 2664,
            "byteOffset" : 16576
        },
        {
            "buffer" : 0,
            "byteLength" : 1776,
            "byteOffset" : 19240
        },
        {
            "buffer" : 0,
            "byteLength" : 816,
            "byteOffset" : 21016
        },
        {
            "buffer" : 0,
            "byteLength" : 3552,
            "byteOffset" : 21832
        },
        {
            "buffer" : 0,
            "byteLength" : 3552,
            "byteOffset" : 25384
        },
        {
            "buffer" : 0,
            "byteLength" : 2368,
            "byteOffset" : 28936
        },
        {
            "buffer" : 0,
            "byteLength" : 888,
            "byteOffset" : 31304
        },
        {
            "buffer" : 0,
            "byteLength" : 23808,
            "byteOffset" : 32192
        },
        {
            "buffer" : 0,
            "byteLength" : 23808,
            "byteOffset" : 56000
        },
        {
            "buffer" : 0,
            "byteLength" : 15872,
            "byteOffset" : 79808
        },
        {
            "buffer" : 0,
            "byteLength" : 5760,
            "byteOffset" : 95680
        },
        {
            "buffer" : 0,
            "byteLength" : 4980,
            "byteOffset" : 101440
        },
        {
            "buffer" : 0,
            "byteLength" : 4980,
            "byteOffset" : 106420
        },
        {
            "buffer" : 0,
            "byteLength" : 3320,
            "byteOffset" : 111400
        },
        {
            "buffer" : 0,
            "byteLength" : 1824,
            "byteOffset" : 114720
        }
    ],
    "buffers" : [
        {
            "byteLength" : 116544,
            "uri" : "data:application/octet-stream;base64,"
        }
    ]
}
