{
    "asset" : {
        "generator" : "Khronos glTF Blender I/O v1.3.48",
        "version" : "2.0"
    },
    "scene" : 0,
    "scenes" : [
        {
            "name" : "Scene",
            "nodes" : [
                0
            ]
        }
    ],
    "nodes" : [
        {
            "mesh" : 0,
            "name" : "Cylinder",
            "scale" : [
                1,
                0.07029330730438232,
                1
            ]
        }
    ],
    "materials" : [
        {
            "doubleSided" : true,
            "emissiveFactor" : [
                0,
                0,
                0
            ],
            "name" : "base_jump",
            "pbrMetallicRoughness" : {
                "baseColorFactor" : [
                    0.8000000715255737,
                    0.0005629282677546144,
                    0,
                    1
                ],
                "metallicFactor" : 0.609929084777832,
                "roughnessFactor" : 0.847517728805542
            }
        },
        {
            "doubleSided" : true,
            "emissiveFactor" : [
                0.015735270455479622,
                1,
                0
            ],
            "name" : "jumpad",
            "pbrMetallicRoughness" : {
                "baseColorFactor" : [
                    0.1785951554775238,
                    0.8000000715255737,
                    0,
                    1
                ],
                "metallicFactor" : 0,
                "roughnessFactor" : 0
            }
        }
    ],
    "meshes" : [
        {
            "name" : "Cylinder.001",
            "primitives" : [
                {
                    "attributes" : {
                        "POSITION" : 0,
                        "NORMAL" : 1,
                        "TEXCOORD_0" : 2
                    },
                    "indices" : 3,
                    "material" : 0
                },
                {
                    "attributes" : {
                        "POSITION" : 4,
                        "NORMAL" : 5,
                        "TEXCOORD_0" : 6
                    },
                    "indices" : 7,
                    "material" : 1
                }
            ]
        }
    ],
    "accessors" : [
        {
            "bufferView" : 0,
            "componentType" : 5126,
            "count" : 1144,
            "max" : [
                1,
                1.6469227075576782,
                1
            ],
            "min" : [
                -1,
                -1,
                -1
            ],
            "type" : "VEC3"
        },
        {
            "bufferView" : 1,
            "componentType" : 5126,
            "count" : 1144,
            "type" : "VEC3"
        },
        {
            "bufferView" : 2,
            "componentType" : 5126,
            "count" : 1144,
            "type" : "VEC2"
        },
        {
            "bufferView" : 3,
            "componentType" : 5123,
            "count" : 2010,
            "type" : "SCALAR"
        },
        {
            "bufferView" : 4,
            "componentType" : 5126,
            "count" : 160,
            "max" : [
                0.6222133040428162,
                2.4252891540527344,
                0.6222133040428162
            ],
            "min" : [
                -0.6222133040428162,
                1,
                -0.6222133636474609
            ],
            "type" : "VEC3"
        },
        {
            "bufferView" : 5,
            "componentType" : 5126,
            "count" : 160,
            "type" : "VEC3"
        },
        {
            "bufferView" : 6,
            "componentType" : 5126,
            "count" : 160,
            "type" : "VEC2"
        },
        {
            "bufferView" : 7,
            "componentType" : 5123,
            "count" : 282,
            "type" : "SCALAR"
        }
    ],
    "bufferViews" : [
        {
            "buffer" : 0,
            "byteLength" : 13728,
            "byteOffset" : 0
        },
        {
            "buffer" : 0,
            "byteLength" : 13728,
            "byteOffset" : 13728
        },
        {
            "buffer" : 0,
            "byteLength" : 9152,
            "byteOffset" : 27456
        },
        {
            "buffer" : 0,
            "byteLength" : 4020,
            "byteOffset" : 36608
        },
        {
            "buffer" : 0,
            "byteLength" : 1920,
            "byteOffset" : 40628
        },
        {
            "buffer" : 0,
            "byteLength" : 1920,
            "byteOffset" : 42548
        },
        {
            "buffer" : 0,
            "byteLength" : 1280,
            "byteOffset" : 44468
        },
        {
            "buffer" : 0,
            "byteLength" : 564,
            "byteOffset" : 45748
        }
    ],
    "buffers" : [
        {
            "byteLength" : 46312,
            "uri" : "data:application/octet-stream;base64,"
        }
    ]
}
