{
    "asset" : {
        "generator" : "Khronos glTF Blender I/O v0.9.36",
        "version" : "2.0"
    },
    "scene" : 0,
    "scenes" : [
        {
            "name" : "Scene",
            "nodes" : [
                0,
                1
            ]
        }
    ],
    "nodes" : [
        {
            "mesh" : 0,
            "name" : "Cylinder.001",
            "rotation" : [
                0,
                0,
                -0.7071067690849304,
                0.7071067690849304
            ],
            "scale" : [
                0.03937225043773651,
                1.9608083963394165,
                0.03937225043773651
            ],
            "translation" : [
                0,
                0,
                -0.38093581795692444
            ]
        },
        {
            "mesh" : 1,
            "name" : "Torus.003",
            "rotation" : [
                0,
                0,
                -0.7071067690849304,
                0.7071067690849304
            ],
            "scale" : [
                0.03863036632537842,
                0.03863036632537842,
                0.09167254716157913
            ],
            "translation" : [
                -1.6989367008209229,
                0,
                -0.33758682012557983
            ]
        }
    ],
    "meshes" : [
        {
            "name" : "Cylinder.001",
            "primitives" : [
                {
                    "attributes" : {
                        "POSITION" : 0,
                        "NORMAL" : 1,
                        "TEXCOORD_0" : 2
                    },
                    "indices" : 3
                }
            ]
        },
        {
            "name" : "Torus.003",
            "primitives" : [
                {
                    "attributes" : {
                        "POSITION" : 4,
                        "NORMAL" : 5,
                        "TEXCOORD_0" : 6
                    },
                    "indices" : 7
                }
            ]
        }
    ],
    "accessors" : [
        {
            "bufferView" : 0,
            "componentType" : 5126,
            "count" : 384,
            "max" : [
                1,
                1,
                3.1778523921966553
            ],
            "min" : [
                -1,
                -1,
                -1
            ],
            "type" : "VEC3"
        },
        {
            "bufferView" : 1,
            "componentType" : 5126,
            "count" : 384,
            "type" : "VEC3"
        },
        {
            "bufferView" : 2,
            "componentType" : 5126,
            "count" : 384,
            "type" : "VEC2"
        },
        {
            "bufferView" : 3,
            "componentType" : 5123,
            "count" : 744,
            "type" : "SCALAR"
        },
        {
            "bufferView" : 4,
            "componentType" : 5126,
            "count" : 9264,
            "max" : [
                1.2460944652557373,
                88.39844512939453,
                1.2478604316711426
            ],
            "min" : [
                -4.875538349151611,
                -0.39374789595603943,
                -1.2443288564682007
            ],
            "type" : "VEC3"
        },
        {
            "bufferView" : 5,
            "componentType" : 5126,
            "count" : 9264,
            "type" : "VEC3"
        },
        {
            "bufferView" : 6,
            "componentType" : 5126,
            "count" : 9264,
            "type" : "VEC2"
        },
        {
            "bufferView" : 7,
            "componentType" : 5123,
            "count" : 13896,
            "type" : "SCALAR"
        }
    ],
    "bufferViews" : [
        {
            "buffer" : 0,
            "byteLength" : 4608,
            "byteOffset" : 0
        },
        {
            "buffer" : 0,
            "byteLength" : 4608,
            "byteOffset" : 4608
        },
        {
            "buffer" : 0,
            "byteLength" : 3072,
            "byteOffset" : 9216
        },
        {
            "buffer" : 0,
            "byteLength" : 1488,
            "byteOffset" : 12288
        },
        {
            "buffer" : 0,
            "byteLength" : 111168,
            "byteOffset" : 13776
        },
        {
            "buffer" : 0,
            "byteLength" : 111168,
            "byteOffset" : 124944
        },
        {
            "buffer" : 0,
            "byteLength" : 74112,
            "byteOffset" : 236112
        },
        {
            "buffer" : 0,
            "byteLength" : 27792,
            "byteOffset" : 310224
        }
    ],
    "buffers" : [
        {
            "byteLength" : 338016,
            "uri" : "data:application/octet-stream;base64,"
        }
    ]
}
