{
    "asset" : {
        "generator" : "Khronos glTF Blender I/O v1.3.48",
        "version" : "2.0"
    },
    "scene" : 0,
    "scenes" : [
        {
            "name" : "Scene",
            "nodes" : [
                0
            ]
        }
    ],
    "nodes" : [
        {
            "mesh" : 0,
            "name" : "Text"
        }
    ],
    "materials" : [
        {
            "doubleSided" : true,
            "emissiveFactor" : [
                1,
                1,
                0
            ],
            "name" : "move",
            "pbrMetallicRoughness" : {
                "baseColorFactor" : [
                    0.7251136302947998,
                    0.8000000715255737,
                    0,
                    1
                ],
                "metallicFactor" : 0,
                "roughnessFactor" : 0.5
            }
        },
        {
            "doubleSided" : true,
            "emissiveFactor" : [
                0,
                1,
                0
            ],
            "name" : "s",
            "pbrMetallicRoughness" : {
                "baseColorFactor" : [
                    0,
                    0.8000000715255737,
                    0.04200000315904617,
                    1
                ],
                "metallicFactor" : 0,
                "roughnessFactor" : 0
            }
        },
        {
            "doubleSided" : true,
            "emissiveFactor" : [
                0,
                0,
                1
            ],
            "name" : "d",
            "pbrMetallicRoughness" : {
                "baseColorFactor" : [
                    0,
                    0,
                    1,
                    1
                ],
                "metallicFactor" : 0,
                "roughnessFactor" : 0
            }
        },
        {
            "doubleSided" : true,
            "emissiveFactor" : [
                1,
                0,
                0
            ],
            "name" : "w",
            "pbrMetallicRoughness" : {
                "baseColorFactor" : [
                    1,
                    0,
                    0,
                    1
                ],
                "metallicFactor" : 0,
                "roughnessFactor" : 0
            }
        }
    ],
    "meshes" : [
        {
            "name" : "Text.002",
            "primitives" : [
                {
                    "attributes" : {
                        "POSITION" : 0,
                        "NORMAL" : 1,
                        "TEXCOORD_0" : 2
                    },
                    "indices" : 3,
                    "material" : 0
                },
                {
                    "attributes" : {
                        "POSITION" : 4,
                        "NORMAL" : 5,
                        "TEXCOORD_0" : 6
                    },
                    "indices" : 7,
                    "material" : 1
                },
                {
                    "attributes" : {
                        "POSITION" : 8,
                        "NORMAL" : 9,
                        "TEXCOORD_0" : 10
                    },
                    "indices" : 11,
                    "material" : 2
                },
                {
                    "attributes" : {
                        "POSITION" : 12,
                        "NORMAL" : 13,
                        "TEXCOORD_0" : 14
                    },
                    "indices" : 15,
                    "material" : 3
                }
            ]
        }
    ],
    "accessors" : [
        {
            "bufferView" : 0,
            "componentType" : 5126,
            "count" : 4277,
            "max" : [
                3.8569998741149902,
                0.059999994933605194,
                0.06911251693964005
            ],
            "min" : [
                0.5690000653266907,
                -0.059999994933605194,
                -0.7511095404624939
            ],
            "type" : "VEC3"
        },
        {
            "bufferView" : 1,
            "componentType" : 5126,
            "count" : 4277,
            "type" : "VEC3"
        },
        {
            "bufferView" : 2,
            "componentType" : 5126,
            "count" : 4277,
            "type" : "VEC2"
        },
        {
            "bufferView" : 3,
            "componentType" : 5123,
            "count" : 23256,
            "type" : "SCALAR"
        },
        {
            "bufferView" : 4,
            "componentType" : 5126,
            "count" : 65,
            "max" : [
                4.464000225067139,
                0.059999994933605194,
                0.059999994933605194
            ],
            "min" : [
                4.246000289916992,
                -0.059999994933605194,
                -0.7420000433921814
            ],
            "type" : "VEC3"
        },
        {
            "bufferView" : 5,
            "componentType" : 5126,
            "count" : 65,
            "type" : "VEC3"
        },
        {
            "bufferView" : 6,
            "componentType" : 5126,
            "count" : 65,
            "type" : "VEC2"
        },
        {
            "bufferView" : 7,
            "componentType" : 5123,
            "count" : 288,
            "type" : "SCALAR"
        },
        {
            "bufferView" : 8,
            "componentType" : 5126,
            "count" : 1391,
            "max" : [
                1.4421172142028809,
                0.059999994933605194,
                1.0691124200820923
            ],
            "min" : [
                -0.0429999940097332,
                -0.059999994933605194,
                0.2488904446363449
            ],
            "type" : "VEC3"
        },
        {
            "bufferView" : 9,
            "componentType" : 5126,
            "count" : 1391,
            "type" : "VEC3"
        },
        {
            "bufferView" : 10,
            "componentType" : 5126,
            "count" : 1391,
            "type" : "VEC2"
        },
        {
            "bufferView" : 11,
            "componentType" : 5123,
            "count" : 7488,
            "type" : "SCALAR"
        },
        {
            "bufferView" : 12,
            "componentType" : 5126,
            "count" : 4433,
            "max" : [
                5.184999942779541,
                0.059999994933605194,
                1.0691124200820923
            ],
            "min" : [
                1.6847491264343262,
                -0.059999994933605194,
                0.2488904446363449
            ],
            "type" : "VEC3"
        },
        {
            "bufferView" : 13,
            "componentType" : 5126,
            "count" : 4433,
            "type" : "VEC3"
        },
        {
            "bufferView" : 14,
            "componentType" : 5126,
            "count" : 4433,
            "type" : "VEC2"
        },
        {
            "bufferView" : 15,
            "componentType" : 5123,
            "count" : 24048,
            "type" : "SCALAR"
        }
    ],
    "bufferViews" : [
        {
            "buffer" : 0,
            "byteLength" : 51324,
            "byteOffset" : 0
        },
        {
            "buffer" : 0,
            "byteLength" : 51324,
            "byteOffset" : 51324
        },
        {
            "buffer" : 0,
            "byteLength" : 34216,
            "byteOffset" : 102648
        },
        {
            "buffer" : 0,
            "byteLength" : 46512,
            "byteOffset" : 136864
        },
        {
            "buffer" : 0,
            "byteLength" : 780,
            "byteOffset" : 183376
        },
        {
            "buffer" : 0,
            "byteLength" : 780,
            "byteOffset" : 184156
        },
        {
            "buffer" : 0,
            "byteLength" : 520,
            "byteOffset" : 184936
        },
        {
            "buffer" : 0,
            "byteLength" : 576,
            "byteOffset" : 185456
        },
        {
            "buffer" : 0,
            "byteLength" : 16692,
            "byteOffset" : 186032
        },
        {
            "buffer" : 0,
            "byteLength" : 16692,
            "byteOffset" : 202724
        },
        {
            "buffer" : 0,
            "byteLength" : 11128,
            "byteOffset" : 219416
        },
        {
            "buffer" : 0,
            "byteLength" : 14976,
            "byteOffset" : 230544
        },
        {
            "buffer" : 0,
            "byteLength" : 53196,
            "byteOffset" : 245520
        },
        {
            "buffer" : 0,
            "byteLength" : 53196,
            "byteOffset" : 298716
        },
        {
            "buffer" : 0,
            "byteLength" : 35464,
            "byteOffset" : 351912
        },
        {
            "buffer" : 0,
            "byteLength" : 48096,
            "byteOffset" : 387376
        }
    ],
    "buffers" : [
        {
            "byteLength" : 435472,
            "uri" : "data:application/octet-stream;base64,"
        }
    ]
}
