{
    "asset" : {
        "generator" : "Khronos glTF Blender I/O v1.3.48",
        "version" : "2.0"
    },
    "scene" : 0,
    "scenes" : [
        {
            "name" : "Scene",
            "nodes" : [
                0
            ]
        }
    ],
    "nodes" : [
        {
            "mesh" : 0,
            "name" : "Text"
        }
    ],
    "meshes" : [
        {
            "name" : "Text",
            "primitives" : [
                {
                    "attributes" : {
                        "POSITION" : 0,
                        "NORMAL" : 1,
                        "TEXCOORD_0" : 2
                    },
                    "indices" : 3
                }
            ]
        }
    ],
    "accessors" : [
        {
            "bufferView" : 0,
            "componentType" : 5126,
            "count" : 2639,
            "max" : [
                3.124166488647461,
                0.029999999329447746,
                1.0390561819076538
            ],
            "min" : [
                0.04400062933564186,
                -0.029999999329447746,
                -0.7143688201904297
            ],
            "type" : "VEC3"
        },
        {
            "bufferView" : 1,
            "componentType" : 5126,
            "count" : 2639,
            "type" : "VEC3"
        },
        {
            "bufferView" : 2,
            "componentType" : 5126,
            "count" : 2639,
            "type" : "VEC2"
        },
        {
            "bufferView" : 3,
            "componentType" : 5123,
            "count" : 13896,
            "type" : "SCALAR"
        }
    ],
    "bufferViews" : [
        {
            "buffer" : 0,
            "byteLength" : 31668,
            "byteOffset" : 0
        },
        {
            "buffer" : 0,
            "byteLength" : 31668,
            "byteOffset" : 31668
        },
        {
            "buffer" : 0,
            "byteLength" : 21112,
            "byteOffset" : 63336
        },
        {
            "buffer" : 0,
            "byteLength" : 27792,
            "byteOffset" : 84448
        }
    ],
    "buffers" : [
        {
            "byteLength" : 112240,
            "uri" : "data:application/octet-stream;base64,"
        }
    ]
}
