{
    "asset" : {
        "generator" : "Khronos glTF Blender I/O v1.2.75",
        "version" : "2.0"
    },
    "scene" : 0,
    "scenes" : [
        {
            "name" : "Scene",
            "nodes" : [
                18
            ]
        }
    ],
    "nodes" : [
        {
            "name" : "Bone.002",
            "rotation" : [
                0,
                -1.1920928955078125e-07,
                0,
                1
            ],
            "translation" : [
                0,
                0.6398501396179199,
                0
            ]
        },
        {
            "name" : "Bone.004",
            "rotation" : [
                0,
                6.776263578034403e-21,
                0,
                1
            ],
            "translation" : [
                0,
                0.7087159156799316,
                0
            ]
        },
        {
            "children" : [
                1
            ],
            "name" : "Bone.003",
            "rotation" : [
                -0.7071068286895752,
                -8.429370268459024e-08,
                -8.429370268459024e-08,
                0.7071068286895752
            ],
            "translation" : [
                9.504159947937296e-08,
                0.6398501396179199,
                -0.39863336086273193
            ]
        },
        {
            "name" : "Bone.006",
            "rotation" : [
                1.5470469350020721e-09,
                -2.1508395064984143e-08,
                1.500737771138299e-16,
                1
            ],
            "translation" : [
                -1.021405182655144e-14,
                0.7033119797706604,
                -3.552713678800501e-15
            ]
        },
        {
            "children" : [
                3
            ],
            "name" : "Bone.005",
            "rotation" : [
                0.49999988079071045,
                0.4999999403953552,
                0.5000001192092896,
                0.5000000596046448
            ],
            "translation" : [
                -3.726635355860708e-08,
                0.6398501396179199,
                0.39433935284614563
            ]
        },
        {
            "children" : [
                0,
                2,
                4
            ],
            "name" : "Bone.001",
            "rotation" : [
                0,
                1.1920928955078125e-07,
                0,
                1
            ],
            "translation" : [
                0,
                0.27619171142578125,
                0
            ]
        },
        {
            "children" : [
                5
            ],
            "name" : "Bone",
            "translation" : [
                0,
                0.8712427616119385,
                0
            ]
        },
        {
            "name" : "Bone.010",
            "rotation" : [
                -3.1710391504600555e-15,
                7.393539367741566e-16,
                4.2001687461379333e-08,
                1
            ],
            "translation" : [
                5.452623685897606e-09,
                0.7095506191253662,
                4.116616122556158e-16
            ]
        },
        {
            "children" : [
                7
            ],
            "name" : "Bone.009",
            "rotation" : [
                0.7071068286895752,
                2.9699682713157927e-08,
                -0.7071068286895752,
                -4.214685134229512e-08
            ],
            "translation" : [
                0,
                0.7744601964950562,
                0.2214631736278534
            ]
        },
        {
            "name" : "Bone.012",
            "rotation" : [
                -3.1710391504600555e-15,
                7.393539367741566e-16,
                4.2001687461379333e-08,
                1
            ],
            "translation" : [
                5.452623685897606e-09,
                0.7095506191253662,
                4.116616122556158e-16
            ]
        },
        {
            "children" : [
                9
            ],
            "name" : "Bone.011",
            "rotation" : [
                0.7071068286895752,
                2.9699682713157927e-08,
                -0.7071068286895752,
                -4.214685134229512e-08
            ],
            "translation" : [
                0,
                0.7744601964950562,
                -0.2159009575843811
            ]
        },
        {
            "mesh" : 0,
            "name" : "Cylinder.001",
            "skin" : 0
        },
        {
            "mesh" : 1,
            "name" : "Cylinder.002",
            "skin" : 0
        },
        {
            "mesh" : 2,
            "name" : "Cylinder.003",
            "skin" : 0
        },
        {
            "mesh" : 3,
            "name" : "Cylinder.004",
            "skin" : 0
        },
        {
            "mesh" : 4,
            "name" : "Cylinder.005",
            "skin" : 0
        },
        {
            "mesh" : 5,
            "name" : "Cylinder.006",
            "skin" : 0
        },
        {
            "mesh" : 6,
            "name" : "Cylinder.007",
            "skin" : 0
        },
        {
            "children" : [
                11,
                12,
                13,
                14,
                15,
                16,
                17,
                6,
                8,
                10
            ],
            "name" : "Armature"
        }
    ],
    "meshes" : [
        {
            "name" : "Cylinder.001",
            "primitives" : [
                {
                    "attributes" : {
                        "POSITION" : 0,
                        "NORMAL" : 1,
                        "TEXCOORD_0" : 2,
                        "COLOR_0" : 3,
                        "JOINTS_0" : 4,
                        "WEIGHTS_0" : 5
                    },
                    "indices" : 6
                }
            ]
        },
        {
            "name" : "Cylinder.002",
            "primitives" : [
                {
                    "attributes" : {
                        "POSITION" : 8,
                        "NORMAL" : 9,
                        "TEXCOORD_0" : 10,
                        "COLOR_0" : 11,
                        "JOINTS_0" : 12,
                        "WEIGHTS_0" : 13
                    },
                    "indices" : 14
                }
            ]
        },
        {
            "name" : "Cylinder.003",
            "primitives" : [
                {
                    "attributes" : {
                        "POSITION" : 15,
                        "NORMAL" : 16,
                        "TEXCOORD_0" : 17,
                        "COLOR_0" : 18,
                        "JOINTS_0" : 19,
                        "WEIGHTS_0" : 20
                    },
                    "indices" : 21
                }
            ]
        },
        {
            "name" : "Cylinder.004",
            "primitives" : [
                {
                    "attributes" : {
                        "POSITION" : 22,
                        "NORMAL" : 23,
                        "TEXCOORD_0" : 24,
                        "COLOR_0" : 25,
                        "JOINTS_0" : 26,
                        "WEIGHTS_0" : 27
                    },
                    "indices" : 28
                }
            ]
        },
        {
            "name" : "Cylinder.005",
            "primitives" : [
                {
                    "attributes" : {
                        "POSITION" : 29,
                        "NORMAL" : 30,
                        "TEXCOORD_0" : 31,
                        "COLOR_0" : 32,
                        "JOINTS_0" : 33,
                        "WEIGHTS_0" : 34
                    },
                    "indices" : 35
                }
            ]
        },
        {
            "name" : "Cylinder.006",
            "primitives" : [
                {
                    "attributes" : {
                        "POSITION" : 36,
                        "NORMAL" : 37,
                        "TEXCOORD_0" : 38,
                        "COLOR_0" : 39,
                        "JOINTS_0" : 40,
                        "WEIGHTS_0" : 41
                    },
                    "indices" : 21
                }
            ]
        },
        {
            "name" : "Cylinder.007",
            "primitives" : [
                {
                    "attributes" : {
                        "POSITION" : 42,
                        "NORMAL" : 43,
                        "TEXCOORD_0" : 44,
                        "COLOR_0" : 45,
                        "JOINTS_0" : 46,
                        "WEIGHTS_0" : 47
                    },
                    "indices" : 48
                }
            ]
        }
    ],
    "skins" : [
        {
            "inverseBindMatrices" : 7,
            "joints" : [
                6,
                5,
                0,
                2,
                1,
                4,
                3,
                8,
                7,
                10,
                9
            ],
            "name" : "Armature"
        }
    ],
    "accessors" : [
        {
            "bufferView" : 0,
            "componentType" : 5126,
            "count" : 1984,
            "max" : [
                0.11270409822463989,
                1.865625262260437,
                1.0419549942016602
            ],
            "min" : [
                -0.0865280032157898,
                1.705565094947815,
                0.3347441554069519
            ],
            "type" : "VEC3"
        },
        {
            "bufferView" : 1,
            "componentType" : 5126,
            "count" : 1984,
            "type" : "VEC3"
        },
        {
            "bufferView" : 2,
            "componentType" : 5126,
            "count" : 1984,
            "type" : "VEC2"
        },
        {
            "bufferView" : 3,
            "componentType" : 5126,
            "count" : 1984,
            "type" : "VEC4"
        },
        {
            "bufferView" : 4,
            "componentType" : 5123,
            "count" : 1984,
            "type" : "VEC4"
        },
        {
            "bufferView" : 5,
            "componentType" : 5126,
            "count" : 1984,
            "type" : "VEC4"
        },
        {
            "bufferView" : 6,
            "componentType" : 5123,
            "count" : 2880,
            "type" : "SCALAR"
        },
        {
            "bufferView" : 7,
            "componentType" : 5126,
            "count" : 11,
            "type" : "MAT4"
        },
        {
            "bufferView" : 8,
            "componentType" : 5126,
            "count" : 8896,
            "max" : [
                0.38155943155288696,
                2.6522116661071777,
                0.34999996423721313
            ],
            "min" : [
                -0.3815593719482422,
                -0.6494772434234619,
                -0.3500000238418579
            ],
            "type" : "VEC3"
        },
        {
            "bufferView" : 9,
            "componentType" : 5126,
            "count" : 8896,
            "type" : "VEC3"
        },
        {
            "bufferView" : 10,
            "componentType" : 5126,
            "count" : 8896,
            "type" : "VEC2"
        },
        {
            "bufferView" : 11,
            "componentType" : 5126,
            "count" : 8896,
            "type" : "VEC4"
        },
        {
            "bufferView" : 12,
            "componentType" : 5123,
            "count" : 8896,
            "type" : "VEC4"
        },
        {
            "bufferView" : 13,
            "componentType" : 5126,
            "count" : 8896,
            "type" : "VEC4"
        },
        {
            "bufferView" : 14,
            "componentType" : 5123,
            "count" : 12684,
            "type" : "SCALAR"
        },
        {
            "bufferView" : 15,
            "componentType" : 5126,
            "count" : 240,
            "max" : [
                0.0655430406332016,
                1.8591705560684204,
                1.1679435968399048
            ],
            "min" : [
                -0.0655430406332016,
                1.7213386297225952,
                1.0301116704940796
            ],
            "type" : "VEC3"
        },
        {
            "bufferView" : 16,
            "componentType" : 5126,
            "count" : 240,
            "type" : "VEC3"
        },
        {
            "bufferView" : 17,
            "componentType" : 5126,
            "count" : 240,
            "type" : "VEC2"
        },
        {
            "bufferView" : 18,
            "componentType" : 5126,
            "count" : 240,
            "type" : "VEC4"
        },
        {
            "bufferView" : 19,
            "componentType" : 5123,
            "count" : 240,
            "type" : "VEC4"
        },
        {
            "bufferView" : 20,
            "componentType" : 5126,
            "count" : 240,
            "type" : "VEC4"
        },
        {
            "bufferView" : 21,
            "componentType" : 5123,
            "count" : 240,
            "type" : "SCALAR"
        },
        {
            "bufferView" : 22,
            "componentType" : 5126,
            "count" : 1984,
            "max" : [
                0.09922701120376587,
                1.8547978401184082,
                1.7236546277999878
            ],
            "min" : [
                -0.07305091619491577,
                1.7163922786712646,
                1.1612987518310547
            ],
            "type" : "VEC3"
        },
        {
            "bufferView" : 23,
            "componentType" : 5126,
            "count" : 1984,
            "type" : "VEC3"
        },
        {
            "bufferView" : 24,
            "componentType" : 5126,
            "count" : 1984,
            "type" : "VEC2"
        },
        {
            "bufferView" : 25,
            "componentType" : 5126,
            "count" : 1984,
            "type" : "VEC4"
        },
        {
            "bufferView" : 26,
            "componentType" : 5123,
            "count" : 1984,
            "type" : "VEC4"
        },
        {
            "bufferView" : 27,
            "componentType" : 5126,
            "count" : 1984,
            "type" : "VEC4"
        },
        {
            "bufferView" : 28,
            "componentType" : 5123,
            "count" : 2880,
            "type" : "SCALAR"
        },
        {
            "bufferView" : 29,
            "componentType" : 5126,
            "count" : 1984,
            "max" : [
                0.11270409822463989,
                1.865625262260437,
                -0.3347442150115967
            ],
            "min" : [
                -0.0865280032157898,
                1.705565094947815,
                -1.0419551134109497
            ],
            "type" : "VEC3"
        },
        {
            "bufferView" : 30,
            "componentType" : 5126,
            "count" : 1984,
            "type" : "VEC3"
        },
        {
            "bufferView" : 31,
            "componentType" : 5126,
            "count" : 1984,
            "type" : "VEC2"
        },
        {
            "bufferView" : 32,
            "componentType" : 5126,
            "count" : 1984,
            "type" : "VEC4"
        },
        {
            "bufferView" : 33,
            "componentType" : 5123,
            "count" : 1984,
            "type" : "VEC4"
        },
        {
            "bufferView" : 34,
            "componentType" : 5126,
            "count" : 1984,
            "type" : "VEC4"
        },
        {
            "bufferView" : 35,
            "componentType" : 5123,
            "count" : 2880,
            "type" : "SCALAR"
        },
        {
            "bufferView" : 36,
            "componentType" : 5126,
            "count" : 240,
            "max" : [
                0.0655430406332016,
                1.8591705560684204,
                -1.0301116704940796
            ],
            "min" : [
                -0.0655430406332016,
                1.7213387489318848,
                -1.1679435968399048
            ],
            "type" : "VEC3"
        },
        {
            "bufferView" : 37,
            "componentType" : 5126,
            "count" : 240,
            "type" : "VEC3"
        },
        {
            "bufferView" : 38,
            "componentType" : 5126,
            "count" : 240,
            "type" : "VEC2"
        },
        {
            "bufferView" : 39,
            "componentType" : 5126,
            "count" : 240,
            "type" : "VEC4"
        },
        {
            "bufferView" : 40,
            "componentType" : 5123,
            "count" : 240,
            "type" : "VEC4"
        },
        {
            "bufferView" : 41,
            "componentType" : 5126,
            "count" : 240,
            "type" : "VEC4"
        },
        {
            "bufferView" : 42,
            "componentType" : 5126,
            "count" : 1984,
            "max" : [
                0.09922701120376587,
                1.8547978401184082,
                -1.1612991094589233
            ],
            "min" : [
                -0.07305091619491577,
                1.7163922786712646,
                -1.723654866218567
            ],
            "type" : "VEC3"
        },
        {
            "bufferView" : 43,
            "componentType" : 5126,
            "count" : 1984,
            "type" : "VEC3"
        },
        {
            "bufferView" : 44,
            "componentType" : 5126,
            "count" : 1984,
            "type" : "VEC2"
        },
        {
            "bufferView" : 45,
            "componentType" : 5126,
            "count" : 1984,
            "type" : "VEC4"
        },
        {
            "bufferView" : 46,
            "componentType" : 5123,
            "count" : 1984,
            "type" : "VEC4"
        },
        {
            "bufferView" : 47,
            "componentType" : 5126,
            "count" : 1984,
            "type" : "VEC4"
        },
        {
            "bufferView" : 48,
            "componentType" : 5123,
            "count" : 2880,
            "type" : "SCALAR"
        }
    ],
    "bufferViews" : [
        {
            "buffer" : 0,
            "byteLength" : 23808,
            "byteOffset" : 0
        },
        {
            "buffer" : 0,
            "byteLength" : 23808,
            "byteOffset" : 23808
        },
        {
            "buffer" : 0,
            "byteLength" : 15872,
            "byteOffset" : 47616
        },
        {
            "buffer" : 0,
            "byteLength" : 31744,
            "byteOffset" : 63488
        },
        {
            "buffer" : 0,
            "byteLength" : 15872,
            "byteOffset" : 95232
        },
        {
            "buffer" : 0,
            "byteLength" : 31744,
            "byteOffset" : 111104
        },
        {
            "buffer" : 0,
            "byteLength" : 5760,
            "byteOffset" : 142848
        },
        {
            "buffer" : 0,
            "byteLength" : 704,
            "byteOffset" : 148608
        },
        {
            "buffer" : 0,
            "byteLength" : 106752,
            "byteOffset" : 149312
        },
        {
            "buffer" : 0,
            "byteLength" : 106752,
            "byteOffset" : 256064
        },
        {
            "buffer" : 0,
            "byteLength" : 71168,
            "byteOffset" : 362816
        },
        {
            "buffer" : 0,
            "byteLength" : 142336,
            "byteOffset" : 433984
        },
        {
            "buffer" : 0,
            "byteLength" : 71168,
            "byteOffset" : 576320
        },
        {
            "buffer" : 0,
            "byteLength" : 142336,
            "byteOffset" : 647488
        },
        {
            "buffer" : 0,
            "byteLength" : 25368,
            "byteOffset" : 789824
        },
        {
            "buffer" : 0,
            "byteLength" : 2880,
            "byteOffset" : 815192
        },
        {
            "buffer" : 0,
            "byteLength" : 2880,
            "byteOffset" : 818072
        },
        {
            "buffer" : 0,
            "byteLength" : 1920,
            "byteOffset" : 820952
        },
        {
            "buffer" : 0,
            "byteLength" : 3840,
            "byteOffset" : 822872
        },
        {
            "buffer" : 0,
            "byteLength" : 1920,
            "byteOffset" : 826712
        },
        {
            "buffer" : 0,
            "byteLength" : 3840,
            "byteOffset" : 828632
        },
        {
            "buffer" : 0,
            "byteLength" : 480,
            "byteOffset" : 832472
        },
        {
            "buffer" : 0,
            "byteLength" : 23808,
            "byteOffset" : 832952
        },
        {
            "buffer" : 0,
            "byteLength" : 23808,
            "byteOffset" : 856760
        },
        {
            "buffer" : 0,
            "byteLength" : 15872,
            "byteOffset" : 880568
        },
        {
            "buffer" : 0,
            "byteLength" : 31744,
            "byteOffset" : 896440
        },
        {
            "buffer" : 0,
            "byteLength" : 15872,
            "byteOffset" : 928184
        },
        {
            "buffer" : 0,
            "byteLength" : 31744,
            "byteOffset" : 944056
        },
        {
            "buffer" : 0,
            "byteLength" : 5760,
            "byteOffset" : 975800
        },
        {
            "buffer" : 0,
            "byteLength" : 23808,
            "byteOffset" : 981560
        },
        {
            "buffer" : 0,
            "byteLength" : 23808,
            "byteOffset" : 1005368
        },
        {
            "buffer" : 0,
            "byteLength" : 15872,
            "byteOffset" : 1029176
        },
        {
            "buffer" : 0,
            "byteLength" : 31744,
            "byteOffset" : 1045048
        },
        {
            "buffer" : 0,
            "byteLength" : 15872,
            "byteOffset" : 1076792
        },
        {
            "buffer" : 0,
            "byteLength" : 31744,
            "byteOffset" : 1092664
        },
        {
            "buffer" : 0,
            "byteLength" : 5760,
            "byteOffset" : 1124408
        },
        {
            "buffer" : 0,
            "byteLength" : 2880,
            "byteOffset" : 1130168
        },
        {
            "buffer" : 0,
            "byteLength" : 2880,
            "byteOffset" : 1133048
        },
        {
            "buffer" : 0,
            "byteLength" : 1920,
            "byteOffset" : 1135928
        },
        {
            "buffer" : 0,
            "byteLength" : 3840,
            "byteOffset" : 1137848
        },
        {
            "buffer" : 0,
            "byteLength" : 1920,
            "byteOffset" : 1141688
        },
        {
            "buffer" : 0,
            "byteLength" : 3840,
            "byteOffset" : 1143608
        },
        {
            "buffer" : 0,
            "byteLength" : 23808,
            "byteOffset" : 1147448
        },
        {
            "buffer" : 0,
            "byteLength" : 23808,
            "byteOffset" : 1171256
        },
        {
            "buffer" : 0,
            "byteLength" : 15872,
            "byteOffset" : 1195064
        },
        {
            "buffer" : 0,
            "byteLength" : 31744,
            "byteOffset" : 1210936
        },
        {
            "buffer" : 0,
            "byteLength" : 15872,
            "byteOffset" : 1242680
        },
        {
            "buffer" : 0,
            "byteLength" : 31744,
            "byteOffset" : 1258552
        },
        {
            "buffer" : 0,
            "byteLength" : 5760,
            "byteOffset" : 1290296
        }
    ],
    "buffers" : [
        {
            "byteLength" : 1296056,
            "uri" : "data:application/octet-stream;base64,"
        }
    ]
}
