{
    "asset" : {
        "generator" : "Khronos glTF Blender I/O v1.1.46",
        "version" : "2.0"
    },
    "scene" : 0,
    "scenes" : [
        {
            "name" : "Scene",
            "nodes" : [
                0,
                1,
                2,
                3,
                4,
                5,
                6,
                7,
                8,
                9
            ]
        }
    ],
    "nodes" : [
        {
            "mesh" : 0,
            "name" : "Cylinder",
            "scale" : [
                0.6787512898445129,
                1,
                1
            ],
            "translation" : [
                0,
                1,
                0
            ]
        },
        {
            "mesh" : 1,
            "name" : "Cylinder.001",
            "scale" : [
                0.719580888748169,
                1.782604455947876,
                0.719580888748169
            ],
            "translation" : [
                0,
                0.5180822610855103,
                0.21563038229942322
            ]
        },
        {
            "mesh" : 2,
            "name" : "Cylinder.002",
            "rotation" : [
                0.7071067690849304,
                0,
                0,
                0.7071067690849304
            ],
            "scale" : [
                0.585976779460907,
                2.080031156539917,
                0.4707651138305664
            ],
            "translation" : [
                0.013088047504425049,
                1.785595178604126,
                0.6883496046066284
            ]
        },
        {
            "mesh" : 3,
            "name" : "Cylinder.003",
            "rotation" : [
                0.7071067690849304,
                0,
                0,
                0.7071067690849304
            ],
            "scale" : [
                0.506699800491333,
                1.653986930847168,
                0.4070751368999481
            ],
            "translation" : [
                0.013088047504425049,
                1.785595178604126,
                1.442476749420166
            ]
        },
        {
            "mesh" : 4,
            "name" : "Icosphere",
            "scale" : [
                0.0689159408211708,
                0.0689159408211708,
                0.0689159408211708
            ],
            "translation" : [
                0,
                1.7902547121047974,
                1.0990276336669922
            ]
        },
        {
            "mesh" : 5,
            "name" : "Icosphere.001",
            "scale" : [
                0.0898858979344368,
                0.0898858979344368,
                0.0898858979344368
            ],
            "translation" : [
                0,
                0.13646581768989563,
                0.21437105536460876
            ]
        },
        {
            "mesh" : 6,
            "name" : "Cylinder.004",
            "scale" : [
                0.49547716975212097,
                2.0740585327148438,
                0.49547716975212097
            ],
            "translation" : [
                0,
                -0.29688704013824463,
                0.21563038229942322
            ]
        },
        {
            "mesh" : 7,
            "name" : "Cube",
            "rotation" : [
                0.12085739523172379,
                0.3723735511302948,
                -0.878307580947876,
                -0.27442166209220886
            ],
            "scale" : [
                0.2326197624206543,
                0.2326197624206543,
                0.2326197475194931
            ],
            "translation" : [
                0,
                2.249335765838623,
                0
            ]
        },
        {
            "mesh" : 8,
            "name" : "Cube.001",
            "rotation" : [
                0.5376881957054138,
                0.45922911167144775,
                -0.7049269676208496,
                -0.05547897145152092
            ],
            "scale" : [
                0.2326197624206543,
                0.2326197624206543,
                0.2326197475194931
            ],
            "translation" : [
                0,
                2.249335765838623,
                0
            ]
        },
        {
            "mesh" : 9,
            "name" : "Icosphere.002",
            "scale" : [
                0.2449425309896469,
                0.2449425309896469,
                0.2449425309896469
            ],
            "translation" : [
                0,
                0.9256026744842529,
                0
            ]
        }
    ],
    "meshes" : [
        {
            "name" : "Cylinder",
            "primitives" : [
                {
                    "attributes" : {
                        "POSITION" : 0,
                        "NORMAL" : 1,
                        "TEXCOORD_0" : 2
                    },
                    "indices" : 3
                }
            ]
        },
        {
            "name" : "Cylinder.001",
            "primitives" : [
                {
                    "attributes" : {
                        "POSITION" : 4,
                        "NORMAL" : 5,
                        "TEXCOORD_0" : 6
                    },
                    "indices" : 7
                }
            ]
        },
        {
            "name" : "Cylinder.002",
            "primitives" : [
                {
                    "attributes" : {
                        "POSITION" : 8,
                        "NORMAL" : 9,
                        "TEXCOORD_0" : 10
                    },
                    "indices" : 11
                }
            ]
        },
        {
            "name" : "Cylinder.004",
            "primitives" : [
                {
                    "attributes" : {
                        "POSITION" : 12,
                        "NORMAL" : 13,
                        "TEXCOORD_0" : 14
                    },
                    "indices" : 15
                }
            ]
        },
        {
            "name" : "Icosphere",
            "primitives" : [
                {
                    "attributes" : {
                        "POSITION" : 16,
                        "NORMAL" : 17,
                        "TEXCOORD_0" : 18
                    },
                    "indices" : 19
                }
            ]
        },
        {
            "name" : "Icosphere.001",
            "primitives" : [
                {
                    "attributes" : {
                        "POSITION" : 20,
                        "NORMAL" : 21,
                        "TEXCOORD_0" : 22
                    },
                    "indices" : 19
                }
            ]
        },
        {
            "name" : "Cylinder.005",
            "primitives" : [
                {
                    "attributes" : {
                        "POSITION" : 23,
                        "NORMAL" : 24,
                        "TEXCOORD_0" : 25
                    },
                    "indices" : 26
                }
            ]
        },
        {
            "name" : "Cube",
            "primitives" : [
                {
                    "attributes" : {
                        "POSITION" : 27,
                        "NORMAL" : 28,
                        "TEXCOORD_0" : 29
                    },
                    "indices" : 30
                }
            ]
        },
        {
            "name" : "Cube.009",
            "primitives" : [
                {
                    "attributes" : {
                        "POSITION" : 31,
                        "NORMAL" : 32,
                        "TEXCOORD_0" : 33
                    },
                    "indices" : 30
                }
            ]
        },
        {
            "name" : "Icosphere.002",
            "primitives" : [
                {
                    "attributes" : {
                        "POSITION" : 34,
                        "NORMAL" : 35,
                        "TEXCOORD_0" : 36
                    },
                    "indices" : 37
                }
            ]
        }
    ],
    "accessors" : [
        {
            "bufferView" : 0,
            "componentType" : 5126,
            "count" : 192,
            "max" : [
                0.3499999940395355,
                0.8500000238418579,
                0.3499999940395355
            ],
            "min" : [
                -0.3499999940395355,
                0.1107097715139389,
                -0.3499999940395355
            ],
            "type" : "VEC3"
        },
        {
            "bufferView" : 1,
            "componentType" : 5126,
            "count" : 192,
            "type" : "VEC3"
        },
        {
            "bufferView" : 2,
            "componentType" : 5126,
            "count" : 192,
            "type" : "VEC2"
        },
        {
            "bufferView" : 3,
            "componentType" : 5123,
            "count" : 372,
            "type" : "SCALAR"
        },
        {
            "bufferView" : 4,
            "componentType" : 5126,
            "count" : 3968,
            "max" : [
                0.17000000178813934,
                0.1700000911951065,
                0.17000004649162292
            ],
            "min" : [
                -0.17000000178813934,
                -0.1700000911951065,
                -0.7693221569061279
            ],
            "type" : "VEC3"
        },
        {
            "bufferView" : 5,
            "componentType" : 5126,
            "count" : 3968,
            "type" : "VEC3"
        },
        {
            "bufferView" : 6,
            "componentType" : 5126,
            "count" : 3968,
            "type" : "VEC2"
        },
        {
            "bufferView" : 7,
            "componentType" : 5123,
            "count" : 5760,
            "type" : "SCALAR"
        },
        {
            "bufferView" : 8,
            "componentType" : 5126,
            "count" : 3968,
            "max" : [
                0.17000000178813934,
                0.1700000762939453,
                0.17000022530555725
            ],
            "min" : [
                -0.17000000178813934,
                -0.8318648338317871,
                -0.17000004649162292
            ],
            "type" : "VEC3"
        },
        {
            "bufferView" : 9,
            "componentType" : 5126,
            "count" : 3968,
            "type" : "VEC3"
        },
        {
            "bufferView" : 10,
            "componentType" : 5126,
            "count" : 3968,
            "type" : "VEC2"
        },
        {
            "bufferView" : 11,
            "componentType" : 5123,
            "count" : 5760,
            "type" : "SCALAR"
        },
        {
            "bufferView" : 12,
            "componentType" : 5126,
            "count" : 3968,
            "max" : [
                0.17000000178813934,
                0.1700000762939453,
                0.17000055313110352
            ],
            "min" : [
                -0.17000000178813934,
                -1.9142422676086426,
                -0.17000004649162292
            ],
            "type" : "VEC3"
        },
        {
            "bufferView" : 13,
            "componentType" : 5126,
            "count" : 3968,
            "type" : "VEC3"
        },
        {
            "bufferView" : 14,
            "componentType" : 5126,
            "count" : 3968,
            "type" : "VEC2"
        },
        {
            "bufferView" : 15,
            "componentType" : 5123,
            "count" : 5760,
            "type" : "SCALAR"
        },
        {
            "bufferView" : 16,
            "componentType" : 5126,
            "count" : 480,
            "max" : [
                0.9510578513145447,
                1.0000009536743164,
                0.9999999403953552
            ],
            "min" : [
                -0.9510578513145447,
                -1,
                -32.89472961425781
            ],
            "type" : "VEC3"
        },
        {
            "bufferView" : 17,
            "componentType" : 5126,
            "count" : 480,
            "type" : "VEC3"
        },
        {
            "bufferView" : 18,
            "componentType" : 5126,
            "count" : 480,
            "type" : "VEC2"
        },
        {
            "bufferView" : 19,
            "componentType" : 5123,
            "count" : 480,
            "type" : "SCALAR"
        },
        {
            "bufferView" : 20,
            "componentType" : 5126,
            "count" : 480,
            "max" : [
                0.9510578513145447,
                1.0000001192092896,
                0.9999999403953552
            ],
            "min" : [
                -0.9510578513145447,
                -1.0000001192092896,
                -5.769848823547363
            ],
            "type" : "VEC3"
        },
        {
            "bufferView" : 21,
            "componentType" : 5126,
            "count" : 480,
            "type" : "VEC3"
        },
        {
            "bufferView" : 22,
            "componentType" : 5126,
            "count" : 480,
            "type" : "VEC2"
        },
        {
            "bufferView" : 23,
            "componentType" : 5126,
            "count" : 3968,
            "max" : [
                0.17000000178813934,
                0.1700000762939453,
                0.17000004649162292
            ],
            "min" : [
                -0.17000000178813934,
                -0.1700000762939453,
                -1.040394902229309
            ],
            "type" : "VEC3"
        },
        {
            "bufferView" : 24,
            "componentType" : 5126,
            "count" : 3968,
            "type" : "VEC3"
        },
        {
            "bufferView" : 25,
            "componentType" : 5126,
            "count" : 3968,
            "type" : "VEC2"
        },
        {
            "bufferView" : 26,
            "componentType" : 5123,
            "count" : 5760,
            "type" : "SCALAR"
        },
        {
            "bufferView" : 27,
            "componentType" : 5126,
            "count" : 24,
            "max" : [
                1,
                1,
                1
            ],
            "min" : [
                -1,
                -1,
                -1
            ],
            "type" : "VEC3"
        },
        {
            "bufferView" : 28,
            "componentType" : 5126,
            "count" : 24,
            "type" : "VEC3"
        },
        {
            "bufferView" : 29,
            "componentType" : 5126,
            "count" : 24,
            "type" : "VEC2"
        },
        {
            "bufferView" : 30,
            "componentType" : 5123,
            "count" : 36,
            "type" : "SCALAR"
        },
        {
            "bufferView" : 31,
            "componentType" : 5126,
            "count" : 24,
            "max" : [
                1,
                1,
                1
            ],
            "min" : [
                -1,
                -1,
                -1
            ],
            "type" : "VEC3"
        },
        {
            "bufferView" : 32,
            "componentType" : 5126,
            "count" : 24,
            "type" : "VEC3"
        },
        {
            "bufferView" : 33,
            "componentType" : 5126,
            "count" : 24,
            "type" : "VEC2"
        },
        {
            "bufferView" : 34,
            "componentType" : 5126,
            "count" : 240,
            "max" : [
                0.9510578513145447,
                1,
                0.9999999403953552
            ],
            "min" : [
                -0.9510578513145447,
                -1,
                -0.9999999403953552
            ],
            "type" : "VEC3"
        },
        {
            "bufferView" : 35,
            "componentType" : 5126,
            "count" : 240,
            "type" : "VEC3"
        },
        {
            "bufferView" : 36,
            "componentType" : 5126,
            "count" : 240,
            "type" : "VEC2"
        },
        {
            "bufferView" : 37,
            "componentType" : 5123,
            "count" : 240,
            "type" : "SCALAR"
        }
    ],
    "bufferViews" : [
        {
            "buffer" : 0,
            "byteLength" : 2304,
            "byteOffset" : 0
        },
        {
            "buffer" : 0,
            "byteLength" : 2304,
            "byteOffset" : 2304
        },
        {
            "buffer" : 0,
            "byteLength" : 1536,
            "byteOffset" : 4608
        },
        {
            "buffer" : 0,
            "byteLength" : 744,
            "byteOffset" : 6144
        },
        {
            "buffer" : 0,
            "byteLength" : 47616,
            "byteOffset" : 6888
        },
        {
            "buffer" : 0,
            "byteLength" : 47616,
            "byteOffset" : 54504
        },
        {
            "buffer" : 0,
            "byteLength" : 31744,
            "byteOffset" : 102120
        },
        {
            "buffer" : 0,
            "byteLength" : 11520,
            "byteOffset" : 133864
        },
        {
            "buffer" : 0,
            "byteLength" : 47616,
            "byteOffset" : 145384
        },
        {
            "buffer" : 0,
            "byteLength" : 47616,
            "byteOffset" : 193000
        },
        {
            "buffer" : 0,
            "byteLength" : 31744,
            "byteOffset" : 240616
        },
        {
            "buffer" : 0,
            "byteLength" : 11520,
            "byteOffset" : 272360
        },
        {
            "buffer" : 0,
            "byteLength" : 47616,
            "byteOffset" : 283880
        },
        {
            "buffer" : 0,
            "byteLength" : 47616,
            "byteOffset" : 331496
        },
        {
            "buffer" : 0,
            "byteLength" : 31744,
            "byteOffset" : 379112
        },
        {
            "buffer" : 0,
            "byteLength" : 11520,
            "byteOffset" : 410856
        },
        {
            "buffer" : 0,
            "byteLength" : 5760,
            "byteOffset" : 422376
        },
        {
            "buffer" : 0,
            "byteLength" : 5760,
            "byteOffset" : 428136
        },
        {
            "buffer" : 0,
            "byteLength" : 3840,
            "byteOffset" : 433896
        },
        {
            "buffer" : 0,
            "byteLength" : 960,
            "byteOffset" : 437736
        },
        {
            "buffer" : 0,
            "byteLength" : 5760,
            "byteOffset" : 438696
        },
        {
            "buffer" : 0,
            "byteLength" : 5760,
            "byteOffset" : 444456
        },
        {
            "buffer" : 0,
            "byteLength" : 3840,
            "byteOffset" : 450216
        },
        {
            "buffer" : 0,
            "byteLength" : 47616,
            "byteOffset" : 454056
        },
        {
            "buffer" : 0,
            "byteLength" : 47616,
            "byteOffset" : 501672
        },
        {
            "buffer" : 0,
            "byteLength" : 31744,
            "byteOffset" : 549288
        },
        {
            "buffer" : 0,
            "byteLength" : 11520,
            "byteOffset" : 581032
        },
        {
            "buffer" : 0,
            "byteLength" : 288,
            "byteOffset" : 592552
        },
        {
            "buffer" : 0,
            "byteLength" : 288,
            "byteOffset" : 592840
        },
        {
            "buffer" : 0,
            "byteLength" : 192,
            "byteOffset" : 593128
        },
        {
            "buffer" : 0,
            "byteLength" : 72,
            "byteOffset" : 593320
        },
        {
            "buffer" : 0,
            "byteLength" : 288,
            "byteOffset" : 593392
        },
        {
            "buffer" : 0,
            "byteLength" : 288,
            "byteOffset" : 593680
        },
        {
            "buffer" : 0,
            "byteLength" : 192,
            "byteOffset" : 593968
        },
        {
            "buffer" : 0,
            "byteLength" : 2880,
            "byteOffset" : 594160
        },
        {
            "buffer" : 0,
            "byteLength" : 2880,
            "byteOffset" : 597040
        },
        {
            "buffer" : 0,
            "byteLength" : 1920,
            "byteOffset" : 599920
        },
        {
            "buffer" : 0,
            "byteLength" : 480,
            "byteOffset" : 601840
        }
    ],
    "buffers" : [
        {
            "byteLength" : 602320,
            "uri" : "data:application/octet-stream;base64,"
        }
    ]
}
