{
    "asset" : {
        "generator" : "Khronos glTF Blender I/O v1.3.48",
        "version" : "2.0"
    },
    "scene" : 0,
    "scenes" : [
        {
            "name" : "Scene",
            "nodes" : [
                0
            ]
        }
    ],
    "nodes" : [
        {
            "mesh" : 0,
            "name" : "Sphere",
            "translation" : [
                0,
                1.2546314001083374,
                0
            ]
        }
    ],
    "materials" : [
        {
            "doubleSided" : true,
            "emissiveFactor" : [
                0,
                0,
                0
            ],
            "name" : "case",
            "pbrMetallicRoughness" : {
                "baseColorFactor" : [
                    0.5701431632041931,
                    0.6038274168968201,
                    0,
                    1
                ],
                "metallicFactor" : 1,
                "roughnessFactor" : 0.20212766528129578
            }
        },
        {
            "doubleSided" : true,
            "emissiveFactor" : [
                1,
                0,
                0
            ],
            "name" : "tip",
            "pbrMetallicRoughness" : {
                "baseColorFactor" : [
                    1,
                    0,
                    0.008846874348819256,
                    1
                ],
                "metallicFactor" : 1,
                "roughnessFactor" : 1
            }
        }
    ],
    "meshes" : [
        {
            "name" : "Sphere",
            "primitives" : [
                {
                    "attributes" : {
                        "POSITION" : 0,
                        "NORMAL" : 1,
                        "TEXCOORD_0" : 2
                    },
                    "indices" : 3,
                    "material" : 0
                },
                {
                    "attributes" : {
                        "POSITION" : 4,
                        "NORMAL" : 5,
                        "TEXCOORD_0" : 6
                    },
                    "indices" : 7,
                    "material" : 1
                }
            ]
        }
    ],
    "accessors" : [
        {
            "bufferView" : 0,
            "componentType" : 5126,
            "count" : 1225,
            "max" : [
                0.3856770992279053,
                0.14191710948944092,
                0.3856770396232605
            ],
            "min" : [
                -0.38567692041397095,
                -0.8459703922271729,
                -0.3856767416000366
            ],
            "type" : "VEC3"
        },
        {
            "bufferView" : 1,
            "componentType" : 5126,
            "count" : 1225,
            "type" : "VEC3"
        },
        {
            "bufferView" : 2,
            "componentType" : 5126,
            "count" : 1225,
            "type" : "VEC2"
        },
        {
            "bufferView" : 3,
            "componentType" : 5123,
            "count" : 1242,
            "type" : "SCALAR"
        },
        {
            "bufferView" : 4,
            "componentType" : 5126,
            "count" : 1052,
            "max" : [
                0.34865060448646545,
                0.5543265342712402,
                0.3486506938934326
            ],
            "min" : [
                -0.34865066409111023,
                0.14191710948944092,
                -0.34865063428878784
            ],
            "type" : "VEC3"
        },
        {
            "bufferView" : 5,
            "componentType" : 5126,
            "count" : 1052,
            "type" : "VEC3"
        },
        {
            "bufferView" : 6,
            "componentType" : 5126,
            "count" : 1052,
            "type" : "VEC2"
        },
        {
            "bufferView" : 7,
            "componentType" : 5123,
            "count" : 1056,
            "type" : "SCALAR"
        }
    ],
    "bufferViews" : [
        {
            "buffer" : 0,
            "byteLength" : 14700,
            "byteOffset" : 0
        },
        {
            "buffer" : 0,
            "byteLength" : 14700,
            "byteOffset" : 14700
        },
        {
            "buffer" : 0,
            "byteLength" : 9800,
            "byteOffset" : 29400
        },
        {
            "buffer" : 0,
            "byteLength" : 2484,
            "byteOffset" : 39200
        },
        {
            "buffer" : 0,
            "byteLength" : 12624,
            "byteOffset" : 41684
        },
        {
            "buffer" : 0,
            "byteLength" : 12624,
            "byteOffset" : 54308
        },
        {
            "buffer" : 0,
            "byteLength" : 8416,
            "byteOffset" : 66932
        },
        {
            "buffer" : 0,
            "byteLength" : 2112,
            "byteOffset" : 75348
        }
    ],
    "buffers" : [
        {
            "byteLength" : 77460,
            "uri" : "data:application/octet-stream;base64,"
        }
    ]
}
