{
    "asset" : {
        "generator" : "Khronos glTF Blender I/O v1.3.48",
        "version" : "2.0"
    },
    "scene" : 0,
    "scenes" : [
        {
            "name" : "Scene",
            "nodes" : [
                0
            ]
        }
    ],
    "nodes" : [
        {
            "mesh" : 0,
            "name" : "Sphere"
        }
    ],
    "materials" : [
        {
            "doubleSided" : true,
            "emissiveFactor" : [
                0,
                0,
                0
            ],
            "name" : "case",
            "pbrMetallicRoughness" : {
                "baseColorFactor" : [
                    0.5701431632041931,
                    0.6038274168968201,
                    0,
                    1
                ],
                "metallicFactor" : 1,
                "roughnessFactor" : 0.20212766528129578
            }
        },
        {
            "doubleSided" : true,
            "emissiveFactor" : [
                1,
                0,
                0
            ],
            "name" : "tip",
            "pbrMetallicRoughness" : {
                "baseColorFactor" : [
                    1,
                    0,
                    0.008846874348819256,
                    1
                ],
                "metallicFactor" : 1,
                "roughnessFactor" : 1
            }
        }
    ],
    "meshes" : [
        {
            "name" : "Sphere",
            "primitives" : [
                {
                    "attributes" : {
                        "POSITION" : 0,
                        "NORMAL" : 1,
                        "TEXCOORD_0" : 2
                    },
                    "indices" : 3,
                    "material" : 0
                },
                {
                    "attributes" : {
                        "POSITION" : 4,
                        "NORMAL" : 5,
                        "TEXCOORD_0" : 6
                    },
                    "indices" : 7,
                    "material" : 1
                }
            ]
        }
    ],
    "accessors" : [
        {
            "bufferView" : 0,
            "componentType" : 5126,
            "count" : 800,
            "max" : [
                0.3856772482395172,
                1.3965485095977783,
                0.3856772184371948
            ],
            "min" : [
                -0.385676771402359,
                0.40866100788116455,
                -0.3856765627861023
            ],
            "type" : "VEC3"
        },
        {
            "bufferView" : 1,
            "componentType" : 5126,
            "count" : 800,
            "type" : "VEC3"
        },
        {
            "bufferView" : 2,
            "componentType" : 5126,
            "count" : 800,
            "type" : "VEC2"
        },
        {
            "bufferView" : 3,
            "componentType" : 5123,
            "count" : 1242,
            "type" : "SCALAR"
        },
        {
            "bufferView" : 4,
            "componentType" : 5126,
            "count" : 736,
            "max" : [
                0.3486507534980774,
                1.8089579343795776,
                0.34865087270736694
            ],
            "min" : [
                -0.3486505150794983,
                1.3965485095977783,
                -0.3486504554748535
            ],
            "type" : "VEC3"
        },
        {
            "bufferView" : 5,
            "componentType" : 5126,
            "count" : 736,
            "type" : "VEC3"
        },
        {
            "bufferView" : 6,
            "componentType" : 5126,
            "count" : 736,
            "type" : "VEC2"
        },
        {
            "bufferView" : 7,
            "componentType" : 5123,
            "count" : 1056,
            "type" : "SCALAR"
        }
    ],
    "bufferViews" : [
        {
            "buffer" : 0,
            "byteLength" : 9600,
            "byteOffset" : 0
        },
        {
            "buffer" : 0,
            "byteLength" : 9600,
            "byteOffset" : 9600
        },
        {
            "buffer" : 0,
            "byteLength" : 6400,
            "byteOffset" : 19200
        },
        {
            "buffer" : 0,
            "byteLength" : 2484,
            "byteOffset" : 25600
        },
        {
            "buffer" : 0,
            "byteLength" : 8832,
            "byteOffset" : 28084
        },
        {
            "buffer" : 0,
            "byteLength" : 8832,
            "byteOffset" : 36916
        },
        {
            "buffer" : 0,
            "byteLength" : 5888,
            "byteOffset" : 45748
        },
        {
            "buffer" : 0,
            "byteLength" : 2112,
            "byteOffset" : 51636
        }
    ],
    "buffers" : [
        {
            "byteLength" : 53748,
            "uri" : "data:application/octet-stream;base64,"
        }
    ]
}
