{
    "asset" : {
        "generator" : "Khronos glTF Blender I/O v1.3.48",
        "version" : "2.0"
    },
    "scene" : 0,
    "scenes" : [
        {
            "name" : "Scene",
            "nodes" : [
                0
            ]
        }
    ],
    "nodes" : [
        {
            "mesh" : 0,
            "name" : "Cylinder",
            "scale" : [
                1,
                0.1549602746963501,
                1
            ]
        }
    ],
    "materials" : [
        {
            "doubleSided" : true,
            "emissiveFactor" : [
                0,
                0,
                0
            ],
            "name" : "SAVE_BASE",
            "pbrMetallicRoughness" : {
                "baseColorFactor" : [
                    0.4479791224002838,
                    0.007307027000933886,
                    0,
                    1
                ],
                "metallicFactor" : 0.7021276354789734,
                "roughnessFactor" : 0.6843971610069275
            }
        },
        {
            "doubleSided" : true,
            "emissiveFactor" : [
                0,
                0.0007171750767156482,
                1
            ],
            "name" : "SAVE_UP",
            "pbrMetallicRoughness" : {
                "baseColorFactor" : [
                    0,
                    0.026914672926068306,
                    0.8000000715255737,
                    1
                ],
                "metallicFactor" : 0,
                "roughnessFactor" : 0
            }
        },
        {
            "doubleSided" : true,
            "emissiveFactor" : [
                0,
                0,
                0
            ],
            "name" : "ANTENA",
            "pbrMetallicRoughness" : {
                "baseColorFactor" : [
                    0.08848714083433151,
                    0,
                    0.8000000715255737,
                    1
                ],
                "metallicFactor" : 0.7517730593681335,
                "roughnessFactor" : 0.1382978856563568
            }
        }
    ],
    "meshes" : [
        {
            "name" : "Cylinder",
            "primitives" : [
                {
                    "attributes" : {
                        "POSITION" : 0,
                        "NORMAL" : 1,
                        "TEXCOORD_0" : 2
                    },
                    "indices" : 3,
                    "material" : 0
                },
                {
                    "attributes" : {
                        "POSITION" : 4,
                        "NORMAL" : 5,
                        "TEXCOORD_0" : 6
                    },
                    "indices" : 7,
                    "material" : 1
                },
                {
                    "attributes" : {
                        "POSITION" : 8,
                        "NORMAL" : 9,
                        "TEXCOORD_0" : 10
                    },
                    "indices" : 11,
                    "material" : 2
                }
            ]
        }
    ],
    "accessors" : [
        {
            "bufferView" : 0,
            "componentType" : 5126,
            "count" : 236,
            "max" : [
                1,
                1,
                1
            ],
            "min" : [
                -1,
                -1,
                -1
            ],
            "type" : "VEC3"
        },
        {
            "bufferView" : 1,
            "componentType" : 5126,
            "count" : 236,
            "type" : "VEC3"
        },
        {
            "bufferView" : 2,
            "componentType" : 5126,
            "count" : 236,
            "type" : "VEC2"
        },
        {
            "bufferView" : 3,
            "componentType" : 5123,
            "count" : 474,
            "type" : "SCALAR"
        },
        {
            "bufferView" : 4,
            "componentType" : 5126,
            "count" : 256,
            "max" : [
                0.8609653115272522,
                1.529534935951233,
                0.8609653115272522
            ],
            "min" : [
                -0.8609653115272522,
                1,
                -0.8609653115272522
            ],
            "type" : "VEC3"
        },
        {
            "bufferView" : 5,
            "componentType" : 5126,
            "count" : 256,
            "type" : "VEC3"
        },
        {
            "bufferView" : 6,
            "componentType" : 5126,
            "count" : 256,
            "type" : "VEC2"
        },
        {
            "bufferView" : 7,
            "componentType" : 5123,
            "count" : 384,
            "type" : "SCALAR"
        },
        {
            "bufferView" : 8,
            "componentType" : 5126,
            "count" : 160,
            "max" : [
                0.6005451679229736,
                12.671249389648438,
                -0.20132720470428467
            ],
            "min" : [
                0.2921028435230255,
                1.5295346975326538,
                -0.5097694396972656
            ],
            "type" : "VEC3"
        },
        {
            "bufferView" : 9,
            "componentType" : 5126,
            "count" : 160,
            "type" : "VEC3"
        },
        {
            "bufferView" : 10,
            "componentType" : 5126,
            "count" : 160,
            "type" : "VEC2"
        },
        {
            "bufferView" : 11,
            "componentType" : 5123,
            "count" : 282,
            "type" : "SCALAR"
        }
    ],
    "bufferViews" : [
        {
            "buffer" : 0,
            "byteLength" : 2832,
            "byteOffset" : 0
        },
        {
            "buffer" : 0,
            "byteLength" : 2832,
            "byteOffset" : 2832
        },
        {
            "buffer" : 0,
            "byteLength" : 1888,
            "byteOffset" : 5664
        },
        {
            "buffer" : 0,
            "byteLength" : 948,
            "byteOffset" : 7552
        },
        {
            "buffer" : 0,
            "byteLength" : 3072,
            "byteOffset" : 8500
        },
        {
            "buffer" : 0,
            "byteLength" : 3072,
            "byteOffset" : 11572
        },
        {
            "buffer" : 0,
            "byteLength" : 2048,
            "byteOffset" : 14644
        },
        {
            "buffer" : 0,
            "byteLength" : 768,
            "byteOffset" : 16692
        },
        {
            "buffer" : 0,
            "byteLength" : 1920,
            "byteOffset" : 17460
        },
        {
            "buffer" : 0,
            "byteLength" : 1920,
            "byteOffset" : 19380
        },
        {
            "buffer" : 0,
            "byteLength" : 1280,
            "byteOffset" : 21300
        },
        {
            "buffer" : 0,
            "byteLength" : 564,
            "byteOffset" : 22580
        }
    ],
    "buffers" : [
        {
            "byteLength" : 23144,
            "uri" : "data:application/octet-stream;base64,"
        }
    ]
}
