{
    "asset" : {
        "generator" : "Khronos glTF Blender I/O v1.3.48",
        "version" : "2.0"
    },
    "scene" : 0,
    "scenes" : [
        {
            "name" : "Scene",
            "nodes" : [
                0,
                1,
                2,
                3,
                4,
                5,
                6,
                7,
                8
            ]
        }
    ],
    "nodes" : [
        {
            "mesh" : 0,
            "name" : "Sphere.003",
            "rotation" : [
                0.7071068286895752,
                0,
                0,
                0.7071067094802856
            ]
        },
        {
            "mesh" : 1,
            "name" : "Plane.001",
            "rotation" : [
                0.7071068286895752,
                0,
                0,
                0.7071067094802856
            ]
        },
        {
            "mesh" : 2,
            "name" : "Cylinder.001",
            "rotation" : [
                0.7071068286895752,
                0,
                0,
                0.7071067094802856
            ]
        },
        {
            "mesh" : 3,
            "name" : "Cube.001_Cube.002",
            "rotation" : [
                0.7071068286895752,
                0,
                0,
                0.7071067094802856
            ]
        },
        {
            "mesh" : 4,
            "name" : "Torus.003",
            "rotation" : [
                0.7071068286895752,
                0,
                0,
                0.7071067094802856
            ]
        },
        {
            "mesh" : 5,
            "name" : "Sphere.004",
            "rotation" : [
                0.7071068286895752,
                0,
                0,
                0.7071067094802856
            ]
        },
        {
            "mesh" : 6,
            "name" : "Cube.005_Cube.006",
            "rotation" : [
                0.7071068286895752,
                0,
                0,
                0.7071067094802856
            ]
        },
        {
            "mesh" : 7,
            "name" : "Cube.001",
            "rotation" : [
                0.7071068286895752,
                0,
                0,
                0.7071067094802856
            ]
        },
        {
            "mesh" : 8,
            "name" : "Cube.002_Cube.005",
            "rotation" : [
                0.7071068286895752,
                0,
                0,
                0.7071067094802856
            ]
        }
    ],
    "materials" : [
        {
            "doubleSided" : true,
            "emissiveFactor" : [
                0,
                0,
                0
            ],
            "name" : "None.001",
            "pbrMetallicRoughness" : {
                "baseColorFactor" : [
                    0.800000011920929,
                    0.800000011920929,
                    0.800000011920929,
                    1
                ],
                "metallicFactor" : 0,
                "roughnessFactor" : 0.2546440064907074
            }
        }
    ],
    "meshes" : [
        {
            "name" : "Sphere.003",
            "primitives" : [
                {
                    "attributes" : {
                        "POSITION" : 0,
                        "NORMAL" : 1,
                        "TEXCOORD_0" : 2
                    },
                    "indices" : 3,
                    "material" : 0
                }
            ]
        },
        {
            "name" : "Plane.001",
            "primitives" : [
                {
                    "attributes" : {
                        "POSITION" : 4,
                        "NORMAL" : 5,
                        "TEXCOORD_0" : 6
                    },
                    "indices" : 7,
                    "material" : 0
                }
            ]
        },
        {
            "name" : "Cylinder.001",
            "primitives" : [
                {
                    "attributes" : {
                        "POSITION" : 8,
                        "NORMAL" : 9,
                        "TEXCOORD_0" : 10
                    },
                    "indices" : 11,
                    "material" : 0
                }
            ]
        },
        {
            "name" : "Cube.001_Cube.002",
            "primitives" : [
                {
                    "attributes" : {
                        "POSITION" : 12,
                        "NORMAL" : 13,
                        "TEXCOORD_0" : 14
                    },
                    "indices" : 15,
                    "material" : 0
                }
            ]
        },
        {
            "name" : "Torus.003",
            "primitives" : [
                {
                    "attributes" : {
                        "POSITION" : 16,
                        "NORMAL" : 17,
                        "TEXCOORD_0" : 18
                    },
                    "indices" : 19,
                    "material" : 0
                }
            ]
        },
        {
            "name" : "Sphere.004",
            "primitives" : [
                {
                    "attributes" : {
                        "POSITION" : 20,
                        "NORMAL" : 21,
                        "TEXCOORD_0" : 22
                    },
                    "indices" : 23,
                    "material" : 0
                }
            ]
        },
        {
            "name" : "Cube.005_Cube.006",
            "primitives" : [
                {
                    "attributes" : {
                        "POSITION" : 24,
                        "NORMAL" : 25,
                        "TEXCOORD_0" : 26
                    },
                    "indices" : 27,
                    "material" : 0
                }
            ]
        },
        {
            "name" : "Cube.001",
            "primitives" : [
                {
                    "attributes" : {
                        "POSITION" : 28,
                        "NORMAL" : 29,
                        "TEXCOORD_0" : 30
                    },
                    "indices" : 31,
                    "material" : 0
                }
            ]
        },
        {
            "name" : "Cube.002_Cube.005",
            "primitives" : [
                {
                    "attributes" : {
                        "POSITION" : 32,
                        "NORMAL" : 33,
                        "TEXCOORD_0" : 34
                    },
                    "indices" : 31,
                    "material" : 0
                }
            ]
        }
    ],
    "accessors" : [
        {
            "bufferView" : 0,
            "componentType" : 5126,
            "count" : 2788,
            "max" : [
                0.13606099784374237,
                0.16099999845027924,
                0.1599999964237213
            ],
            "min" : [
                -0.4613569974899292,
                -0.1599999964237213,
                -0.1599999964237213
            ],
            "type" : "VEC3"
        },
        {
            "bufferView" : 1,
            "componentType" : 5126,
            "count" : 2788,
            "type" : "VEC3"
        },
        {
            "bufferView" : 2,
            "componentType" : 5126,
            "count" : 2788,
            "type" : "VEC2"
        },
        {
            "bufferView" : 3,
            "componentType" : 5123,
            "count" : 4308,
            "type" : "SCALAR"
        },
        {
            "bufferView" : 4,
            "componentType" : 5126,
            "count" : 200,
            "max" : [
                -0.14479799568653107,
                -0.3603219985961914,
                0.032586999237537384
            ],
            "min" : [
                -0.18219199776649475,
                -0.42549601197242737,
                -0.032586999237537384
            ],
            "type" : "VEC3"
        },
        {
            "bufferView" : 5,
            "componentType" : 5126,
            "count" : 200,
            "type" : "VEC3"
        },
        {
            "bufferView" : 6,
            "componentType" : 5126,
            "count" : 200,
            "type" : "VEC2"
        },
        {
            "bufferView" : 7,
            "componentType" : 5123,
            "count" : 576,
            "type" : "SCALAR"
        },
        {
            "bufferView" : 8,
            "componentType" : 5126,
            "count" : 352,
            "max" : [
                -0.15117399394512177,
                -0.0478070005774498,
                0.018699999898672104
            ],
            "min" : [
                -0.17560799419879913,
                -0.42554399371147156,
                -0.018699999898672104
            ],
            "type" : "VEC3"
        },
        {
            "bufferView" : 9,
            "componentType" : 5126,
            "count" : 352,
            "type" : "VEC3"
        },
        {
            "bufferView" : 10,
            "componentType" : 5126,
            "count" : 352,
            "type" : "VEC2"
        },
        {
            "bufferView" : 11,
            "componentType" : 5123,
            "count" : 654,
            "type" : "SCALAR"
        },
        {
            "bufferView" : 12,
            "componentType" : 5126,
            "count" : 96,
            "max" : [
                -0.0053400001488626,
                0.15859700739383698,
                0.4792580008506775
            ],
            "min" : [
                -0.29094600677490234,
                -0.17557500302791595,
                0.030632000416517258
            ],
            "type" : "VEC3"
        },
        {
            "bufferView" : 13,
            "componentType" : 5126,
            "count" : 96,
            "type" : "VEC3"
        },
        {
            "bufferView" : 14,
            "componentType" : 5126,
            "count" : 96,
            "type" : "VEC2"
        },
        {
            "bufferView" : 15,
            "componentType" : 5123,
            "count" : 144,
            "type" : "SCALAR"
        },
        {
            "bufferView" : 16,
            "componentType" : 5126,
            "count" : 6620,
            "max" : [
                -0.15600599348545074,
                -0.2080029994249344,
                -0.03050599992275238
            ],
            "min" : [
                -0.1713850051164627,
                -0.2395929992198944,
                -0.04588500037789345
            ],
            "type" : "VEC3"
        },
        {
            "bufferView" : 17,
            "componentType" : 5126,
            "count" : 6620,
            "type" : "VEC3"
        },
        {
            "bufferView" : 18,
            "componentType" : 5126,
            "count" : 6620,
            "type" : "VEC2"
        },
        {
            "bufferView" : 19,
            "componentType" : 5123,
            "count" : 17154,
            "type" : "SCALAR"
        },
        {
            "bufferView" : 20,
            "componentType" : 5126,
            "count" : 1974,
            "max" : [
                -0.1589300036430359,
                -0.23240399360656738,
                -0.03300999850034714
            ],
            "min" : [
                -0.168380007147789,
                -0.2404710054397583,
                -0.04242600128054619
            ],
            "type" : "VEC3"
        },
        {
            "bufferView" : 21,
            "componentType" : 5126,
            "count" : 1974,
            "type" : "VEC3"
        },
        {
            "bufferView" : 22,
            "componentType" : 5126,
            "count" : 1974,
            "type" : "VEC2"
        },
        {
            "bufferView" : 23,
            "componentType" : 5123,
            "count" : 2880,
            "type" : "SCALAR"
        },
        {
            "bufferView" : 24,
            "componentType" : 5126,
            "count" : 7002,
            "max" : [
                -0.15984800457954407,
                -0.1704380065202713,
                0.007201999891549349
            ],
            "min" : [
                -0.16686899960041046,
                -0.35324400663375854,
                -0.03224800154566765
            ],
            "type" : "VEC3"
        },
        {
            "bufferView" : 25,
            "componentType" : 5126,
            "count" : 7002,
            "type" : "VEC3"
        },
        {
            "bufferView" : 26,
            "componentType" : 5126,
            "count" : 7002,
            "type" : "VEC2"
        },
        {
            "bufferView" : 27,
            "componentType" : 5123,
            "count" : 26820,
            "type" : "SCALAR"
        },
        {
            "bufferView" : 28,
            "componentType" : 5126,
            "count" : 24,
            "max" : [
                -0.08808500319719315,
                0.06841299682855606,
                0.19846899807453156
            ],
            "min" : [
                -0.23101599514484406,
                -0.07451800256967545,
                0.05553799867630005
            ],
            "type" : "VEC3"
        },
        {
            "bufferView" : 29,
            "componentType" : 5126,
            "count" : 24,
            "type" : "VEC3"
        },
        {
            "bufferView" : 30,
            "componentType" : 5126,
            "count" : 24,
            "type" : "VEC2"
        },
        {
            "bufferView" : 31,
            "componentType" : 5123,
            "count" : 36,
            "type" : "SCALAR"
        },
        {
            "bufferView" : 32,
            "componentType" : 5126,
            "count" : 24,
            "max" : [
                -0.08808500319719315,
                0.06841299682855606,
                0.19846899807453156
            ],
            "min" : [
                -0.23101599514484406,
                -0.07451800256967545,
                0.05553799867630005
            ],
            "type" : "VEC3"
        },
        {
            "bufferView" : 33,
            "componentType" : 5126,
            "count" : 24,
            "type" : "VEC3"
        },
        {
            "bufferView" : 34,
            "componentType" : 5126,
            "count" : 24,
            "type" : "VEC2"
        }
    ],
    "bufferViews" : [
        {
            "buffer" : 0,
            "byteLength" : 33456,
            "byteOffset" : 0
        },
        {
            "buffer" : 0,
            "byteLength" : 33456,
            "byteOffset" : 33456
        },
        {
            "buffer" : 0,
            "byteLength" : 22304,
            "byteOffset" : 66912
        },
        {
            "buffer" : 0,
            "byteLength" : 8616,
            "byteOffset" : 89216
        },
        {
            "buffer" : 0,
            "byteLength" : 2400,
            "byteOffset" : 97832
        },
        {
            "buffer" : 0,
            "byteLength" : 2400,
            "byteOffset" : 100232
        },
        {
            "buffer" : 0,
            "byteLength" : 1600,
            "byteOffset" : 102632
        },
        {
            "buffer" : 0,
            "byteLength" : 1152,
            "byteOffset" : 104232
        },
        {
            "buffer" : 0,
            "byteLength" : 4224,
            "byteOffset" : 105384
        },
        {
            "buffer" : 0,
            "byteLength" : 4224,
            "byteOffset" : 109608
        },
        {
            "buffer" : 0,
            "byteLength" : 2816,
            "byteOffset" : 113832
        },
        {
            "buffer" : 0,
            "byteLength" : 1308,
            "byteOffset" : 116648
        },
        {
            "buffer" : 0,
            "byteLength" : 1152,
            "byteOffset" : 117956
        },
        {
            "buffer" : 0,
            "byteLength" : 1152,
            "byteOffset" : 119108
        },
        {
            "buffer" : 0,
            "byteLength" : 768,
            "byteOffset" : 120260
        },
        {
            "buffer" : 0,
            "byteLength" : 288,
            "byteOffset" : 121028
        },
        {
            "buffer" : 0,
            "byteLength" : 79440,
            "byteOffset" : 121316
        },
        {
            "buffer" : 0,
            "byteLength" : 79440,
            "byteOffset" : 200756
        },
        {
            "buffer" : 0,
            "byteLength" : 52960,
            "byteOffset" : 280196
        },
        {
            "buffer" : 0,
            "byteLength" : 34308,
            "byteOffset" : 333156
        },
        {
            "buffer" : 0,
            "byteLength" : 23688,
            "byteOffset" : 367464
        },
        {
            "buffer" : 0,
            "byteLength" : 23688,
            "byteOffset" : 391152
        },
        {
            "buffer" : 0,
            "byteLength" : 15792,
            "byteOffset" : 414840
        },
        {
            "buffer" : 0,
            "byteLength" : 5760,
            "byteOffset" : 430632
        },
        {
            "buffer" : 0,
            "byteLength" : 84024,
            "byteOffset" : 436392
        },
        {
            "buffer" : 0,
            "byteLength" : 84024,
            "byteOffset" : 520416
        },
        {
            "buffer" : 0,
            "byteLength" : 56016,
            "byteOffset" : 604440
        },
        {
            "buffer" : 0,
            "byteLength" : 53640,
            "byteOffset" : 660456
        },
        {
            "buffer" : 0,
            "byteLength" : 288,
            "byteOffset" : 714096
        },
        {
            "buffer" : 0,
            "byteLength" : 288,
            "byteOffset" : 714384
        },
        {
            "buffer" : 0,
            "byteLength" : 192,
            "byteOffset" : 714672
        },
        {
            "buffer" : 0,
            "byteLength" : 72,
            "byteOffset" : 714864
        },
        {
            "buffer" : 0,
            "byteLength" : 288,
            "byteOffset" : 714936
        },
        {
            "buffer" : 0,
            "byteLength" : 288,
            "byteOffset" : 715224
        },
        {
            "buffer" : 0,
            "byteLength" : 192,
            "byteOffset" : 715512
        }
    ],
    "buffers" : [
        {
            "byteLength" : 715704,
            "uri" : "data:application/octet-stream;base64,"
        }
    ]
}
