{
    "asset" : {
        "generator" : "Khronos glTF Blender I/O v1.3.48",
        "version" : "2.0"
    },
    "scene" : 0,
    "scenes" : [
        {
            "name" : "Scene",
            "nodes" : [
                0
            ]
        }
    ],
    "nodes" : [
        {
            "mesh" : 0,
            "name" : "Text"
        }
    ],
    "materials" : [
        {
            "doubleSided" : true,
            "emissiveFactor" : [
                1,
                0,
                0
            ],
            "name" : "w",
            "pbrMetallicRoughness" : {
                "baseColorFactor" : [
                    1,
                    0,
                    0,
                    1
                ],
                "metallicFactor" : 0,
                "roughnessFactor" : 0
            }
        },
        {
            "doubleSided" : true,
            "emissiveFactor" : [
                0,
                0,
                1
            ],
            "name" : "d",
            "pbrMetallicRoughness" : {
                "baseColorFactor" : [
                    0,
                    0,
                    1,
                    1
                ],
                "metallicFactor" : 0,
                "roughnessFactor" : 0
            }
        }
    ],
    "meshes" : [
        {
            "name" : "Text.003",
            "primitives" : [
                {
                    "attributes" : {
                        "POSITION" : 0,
                        "NORMAL" : 1,
                        "TEXCOORD_0" : 2
                    },
                    "indices" : 3,
                    "material" : 0
                },
                {
                    "attributes" : {
                        "POSITION" : 4,
                        "NORMAL" : 5,
                        "TEXCOORD_0" : 6
                    },
                    "indices" : 7,
                    "material" : 1
                }
            ]
        }
    ],
    "accessors" : [
        {
            "bufferView" : 0,
            "componentType" : 5126,
            "count" : 12052,
            "max" : [
                4.7553229331970215,
                0.05999999865889549,
                0.04902728274464607
            ],
            "min" : [
                -0.00016723200678825378,
                -0.05999999865889549,
                -0.7310247421264648
            ],
            "type" : "VEC3"
        },
        {
            "bufferView" : 1,
            "componentType" : 5126,
            "count" : 12052,
            "type" : "VEC3"
        },
        {
            "bufferView" : 2,
            "componentType" : 5126,
            "count" : 12052,
            "type" : "VEC2"
        },
        {
            "bufferView" : 3,
            "componentType" : 5123,
            "count" : 67320,
            "type" : "SCALAR"
        },
        {
            "bufferView" : 4,
            "componentType" : 5126,
            "count" : 6946,
            "max" : [
                4.262061595916748,
                0.05999999865889549,
                1.2700083255767822
            ],
            "min" : [
                0.2550000250339508,
                -0.05999999865889549,
                0.2689269483089447
            ],
            "type" : "VEC3"
        },
        {
            "bufferView" : 5,
            "componentType" : 5126,
            "count" : 6946,
            "type" : "VEC3"
        },
        {
            "bufferView" : 6,
            "componentType" : 5126,
            "count" : 6946,
            "type" : "VEC2"
        },
        {
            "bufferView" : 7,
            "componentType" : 5123,
            "count" : 38808,
            "type" : "SCALAR"
        }
    ],
    "bufferViews" : [
        {
            "buffer" : 0,
            "byteLength" : 144624,
            "byteOffset" : 0
        },
        {
            "buffer" : 0,
            "byteLength" : 144624,
            "byteOffset" : 144624
        },
        {
            "buffer" : 0,
            "byteLength" : 96416,
            "byteOffset" : 289248
        },
        {
            "buffer" : 0,
            "byteLength" : 134640,
            "byteOffset" : 385664
        },
        {
            "buffer" : 0,
            "byteLength" : 83352,
            "byteOffset" : 520304
        },
        {
            "buffer" : 0,
            "byteLength" : 83352,
            "byteOffset" : 603656
        },
        {
            "buffer" : 0,
            "byteLength" : 55568,
            "byteOffset" : 687008
        },
        {
            "buffer" : 0,
            "byteLength" : 77616,
            "byteOffset" : 742576
        }
    ],
    "buffers" : [
        {
            "byteLength" : 820192,
            "uri" : "data:application/octet-stream;base64,"
        }
    ]
}
