{
    "asset" : {
        "generator" : "Khronos glTF Blender I/O v1.2.75",
        "version" : "2.0"
    },
    "scene" : 0,
    "scenes" : [
        {
            "name" : "Scene",
            "nodes" : [
                0,
                1,
                2
            ]
        }
    ],
    "nodes" : [
        {
            "mesh" : 0,
            "name" : "Cube.001",
            "scale" : [
                0.7310086488723755,
                1,
                1
            ],
            "translation" : [
                1.0040260553359985,
                0,
                0
            ]
        },
        {
            "mesh" : 1,
            "name" : "Cylinder",
            "rotation" : [
                0,
                0,
                -0.7071067690849304,
                0.7071067690849304
            ],
            "scale" : [
                1,
                2.222367525100708,
                1
            ],
            "translation" : [
                3.7359981536865234,
                0,
                0
            ]
        },
        {
            "mesh" : 2,
            "name" : "Torus.001",
            "rotation" : [
                0.7071067690849304,
                0,
                0,
                0.7071067690849304
            ],
            "scale" : [
                0.7389169931411743,
                1.4948633909225464,
                0.7389169931411743
            ],
            "translation" : [
                3.8060684204101562,
                -0.08330601453781128,
                1.5197148323059082
            ]
        }
    ],
    "meshes" : [
        {
            "name" : "Cube.002",
            "primitives" : [
                {
                    "attributes" : {
                        "POSITION" : 0,
                        "NORMAL" : 1,
                        "TEXCOORD_0" : 2
                    },
                    "indices" : 3
                }
            ]
        },
        {
            "name" : "Cylinder",
            "primitives" : [
                {
                    "attributes" : {
                        "POSITION" : 4,
                        "NORMAL" : 5,
                        "TEXCOORD_0" : 6
                    },
                    "indices" : 7
                }
            ]
        },
        {
            "name" : "Torus.001",
            "primitives" : [
                {
                    "attributes" : {
                        "POSITION" : 8,
                        "NORMAL" : 9,
                        "TEXCOORD_0" : 10
                    },
                    "indices" : 11
                }
            ]
        }
    ],
    "accessors" : [
        {
            "bufferView" : 0,
            "componentType" : 5126,
            "count" : 384,
            "max" : [
                9.211030960083008,
                6.098756790161133,
                0.7555989027023315
            ],
            "min" : [
                -1.6133990287780762,
                -0.8368203639984131,
                -0.7555989027023315
            ],
            "type" : "VEC3"
        },
        {
            "bufferView" : 1,
            "componentType" : 5126,
            "count" : 384,
            "type" : "VEC3"
        },
        {
            "bufferView" : 2,
            "componentType" : 5126,
            "count" : 384,
            "type" : "VEC2"
        },
        {
            "bufferView" : 3,
            "componentType" : 5123,
            "count" : 528,
            "type" : "SCALAR"
        },
        {
            "bufferView" : 4,
            "componentType" : 5126,
            "count" : 9984,
            "max" : [
                1.3386344909667969,
                1.1218364238739014,
                1.3386343717575073
            ],
            "min" : [
                -1.3386342525482178,
                -1.1218510866165161,
                -1.3386343717575073
            ],
            "type" : "VEC3"
        },
        {
            "bufferView" : 5,
            "componentType" : 5126,
            "count" : 9984,
            "type" : "VEC3"
        },
        {
            "bufferView" : 6,
            "componentType" : 5126,
            "count" : 9984,
            "type" : "VEC2"
        },
        {
            "bufferView" : 7,
            "componentType" : 5123,
            "count" : 14964,
            "type" : "SCALAR"
        },
        {
            "bufferView" : 8,
            "componentType" : 5126,
            "count" : 7680,
            "max" : [
                1.0802388191223145,
                1.2981972694396973,
                1.0802488327026367
            ],
            "min" : [
                -1.0802491903305054,
                -0.472720205783844,
                -1.0802388191223145
            ],
            "type" : "VEC3"
        },
        {
            "bufferView" : 9,
            "componentType" : 5126,
            "count" : 7680,
            "type" : "VEC3"
        },
        {
            "bufferView" : 10,
            "componentType" : 5126,
            "count" : 7680,
            "type" : "VEC2"
        },
        {
            "bufferView" : 11,
            "componentType" : 5123,
            "count" : 11856,
            "type" : "SCALAR"
        }
    ],
    "bufferViews" : [
        {
            "buffer" : 0,
            "byteLength" : 4608,
            "byteOffset" : 0
        },
        {
            "buffer" : 0,
            "byteLength" : 4608,
            "byteOffset" : 4608
        },
        {
            "buffer" : 0,
            "byteLength" : 3072,
            "byteOffset" : 9216
        },
        {
            "buffer" : 0,
            "byteLength" : 1056,
            "byteOffset" : 12288
        },
        {
            "buffer" : 0,
            "byteLength" : 119808,
            "byteOffset" : 13344
        },
        {
            "buffer" : 0,
            "byteLength" : 119808,
            "byteOffset" : 133152
        },
        {
            "buffer" : 0,
            "byteLength" : 79872,
            "byteOffset" : 252960
        },
        {
            "buffer" : 0,
            "byteLength" : 29928,
            "byteOffset" : 332832
        },
        {
            "buffer" : 0,
            "byteLength" : 92160,
            "byteOffset" : 362760
        },
        {
            "buffer" : 0,
            "byteLength" : 92160,
            "byteOffset" : 454920
        },
        {
            "buffer" : 0,
            "byteLength" : 61440,
            "byteOffset" : 547080
        },
        {
            "buffer" : 0,
            "byteLength" : 23712,
            "byteOffset" : 608520
        }
    ],
    "buffers" : [
        {
            "byteLength" : 632232,
            "uri" : "data:application/octet-stream;base64,"
        }
    ]
}
