{
    "asset" : {
        "generator" : "Khronos glTF Blender I/O v1.3.48",
        "version" : "2.0"
    },
    "scene" : 0,
    "scenes" : [
        {
            "name" : "Scene",
            "nodes" : [
                0
            ]
        }
    ],
    "nodes" : [
        {
            "mesh" : 0,
            "name" : "Text"
        }
    ],
    "materials" : [
        {
            "doubleSided" : true,
            "emissiveFactor" : [
                1,
                0,
                0
            ],
            "name" : "w",
            "pbrMetallicRoughness" : {
                "baseColorFactor" : [
                    1,
                    0,
                    0,
                    1
                ],
                "metallicFactor" : 0,
                "roughnessFactor" : 0
            }
        },
        {
            "doubleSided" : true,
            "emissiveFactor" : [
                1,
                0,
                1
            ],
            "name" : "a",
            "pbrMetallicRoughness" : {
                "baseColorFactor" : [
                    1,
                    0,
                    1,
                    1
                ],
                "metallicFactor" : 0,
                "roughnessFactor" : 0
            }
        },
        {
            "doubleSided" : true,
            "emissiveFactor" : [
                0,
                1,
                0
            ],
            "name" : "s",
            "pbrMetallicRoughness" : {
                "baseColorFactor" : [
                    0,
                    0.8000000715255737,
                    0.04200000315904617,
                    1
                ],
                "metallicFactor" : 0,
                "roughnessFactor" : 0
            }
        },
        {
            "doubleSided" : true,
            "emissiveFactor" : [
                0,
                0,
                1
            ],
            "name" : "d",
            "pbrMetallicRoughness" : {
                "baseColorFactor" : [
                    0,
                    0,
                    1,
                    1
                ],
                "metallicFactor" : 0,
                "roughnessFactor" : 0
            }
        },
        {
            "doubleSided" : true,
            "emissiveFactor" : [
                1,
                1,
                0
            ],
            "name" : "move",
            "pbrMetallicRoughness" : {
                "baseColorFactor" : [
                    0.7251136302947998,
                    0.8000000715255737,
                    0,
                    1
                ],
                "metallicFactor" : 0,
                "roughnessFactor" : 0.5
            }
        }
    ],
    "meshes" : [
        {
            "name" : "Text",
            "primitives" : [
                {
                    "attributes" : {
                        "POSITION" : 0,
                        "NORMAL" : 1,
                        "TEXCOORD_0" : 2
                    },
                    "indices" : 3,
                    "material" : 0
                },
                {
                    "attributes" : {
                        "POSITION" : 4,
                        "NORMAL" : 5,
                        "TEXCOORD_0" : 6
                    },
                    "indices" : 7,
                    "material" : 1
                },
                {
                    "attributes" : {
                        "POSITION" : 8,
                        "NORMAL" : 9,
                        "TEXCOORD_0" : 10
                    },
                    "indices" : 11,
                    "material" : 2
                },
                {
                    "attributes" : {
                        "POSITION" : 12,
                        "NORMAL" : 13,
                        "TEXCOORD_0" : 14
                    },
                    "indices" : 15,
                    "material" : 3
                },
                {
                    "attributes" : {
                        "POSITION" : 16,
                        "NORMAL" : 17,
                        "TEXCOORD_0" : 18
                    },
                    "indices" : 19,
                    "material" : 4
                }
            ]
        }
    ],
    "accessors" : [
        {
            "bufferView" : 0,
            "componentType" : 5126,
            "count" : 322,
            "max" : [
                2.723806381225586,
                0.06000000610947609,
                0.016000010073184967
            ],
            "min" : [
                1.6532138586044312,
                -0.06000000610947609,
                -0.6920000314712524
            ],
            "type" : "VEC3"
        },
        {
            "bufferView" : 1,
            "componentType" : 5126,
            "count" : 322,
            "type" : "VEC3"
        },
        {
            "bufferView" : 2,
            "componentType" : 5126,
            "count" : 322,
            "type" : "VEC2"
        },
        {
            "bufferView" : 3,
            "componentType" : 5123,
            "count" : 1716,
            "type" : "SCALAR"
        },
        {
            "bufferView" : 4,
            "componentType" : 5126,
            "count" : 299,
            "max" : [
                1.929964303970337,
                0.06000000610947609,
                1.0099999904632568
            ],
            "min" : [
                1.2324292659759521,
                -0.06000000610947609,
                0.3039999306201935
            ],
            "type" : "VEC3"
        },
        {
            "bufferView" : 5,
            "componentType" : 5126,
            "count" : 299,
            "type" : "VEC3"
        },
        {
            "bufferView" : 6,
            "componentType" : 5126,
            "count" : 299,
            "type" : "VEC2"
        },
        {
            "bufferView" : 7,
            "componentType" : 5123,
            "count" : 1452,
            "type" : "SCALAR"
        },
        {
            "bufferView" : 8,
            "componentType" : 5126,
            "count" : 2829,
            "max" : [
                2.3506112098693848,
                0.06000000610947609,
                1.0190067291259766
            ],
            "min" : [
                1.9445325136184692,
                -0.06000000610947609,
                0.2989937663078308
            ],
            "type" : "VEC3"
        },
        {
            "bufferView" : 9,
            "componentType" : 5126,
            "count" : 2829,
            "type" : "VEC3"
        },
        {
            "bufferView" : 10,
            "componentType" : 5126,
            "count" : 2829,
            "type" : "VEC2"
        },
        {
            "bufferView" : 11,
            "componentType" : 5123,
            "count" : 16104,
            "type" : "SCALAR"
        },
        {
            "bufferView" : 12,
            "componentType" : 5126,
            "count" : 1288,
            "max" : [
                3.08659291267395,
                0.06000000610947609,
                1.0099999904632568
            ],
            "min" : [
                2.4385743141174316,
                -0.06000000610947609,
                0.30799993872642517
            ],
            "type" : "VEC3"
        },
        {
            "bufferView" : 13,
            "componentType" : 5126,
            "count" : 1288,
            "type" : "VEC3"
        },
        {
            "bufferView" : 14,
            "componentType" : 5126,
            "count" : 1288,
            "type" : "VEC2"
        },
        {
            "bufferView" : 15,
            "componentType" : 5123,
            "count" : 7128,
            "type" : "SCALAR"
        },
        {
            "bufferView" : 16,
            "componentType" : 5126,
            "count" : 5566,
            "max" : [
                4.39400053024292,
                0.06000000610947609,
                2.0190188884735107
            ],
            "min" : [
                0.006999991834163666,
                -0.06000000610947609,
                1.298981785774231
            ],
            "type" : "VEC3"
        },
        {
            "bufferView" : 17,
            "componentType" : 5126,
            "count" : 5566,
            "type" : "VEC3"
        },
        {
            "bufferView" : 18,
            "componentType" : 5126,
            "count" : 5566,
            "type" : "VEC2"
        },
        {
            "bufferView" : 19,
            "componentType" : 5123,
            "count" : 30888,
            "type" : "SCALAR"
        }
    ],
    "bufferViews" : [
        {
            "buffer" : 0,
            "byteLength" : 3864,
            "byteOffset" : 0
        },
        {
            "buffer" : 0,
            "byteLength" : 3864,
            "byteOffset" : 3864
        },
        {
            "buffer" : 0,
            "byteLength" : 2576,
            "byteOffset" : 7728
        },
        {
            "buffer" : 0,
            "byteLength" : 3432,
            "byteOffset" : 10304
        },
        {
            "buffer" : 0,
            "byteLength" : 3588,
            "byteOffset" : 13736
        },
        {
            "buffer" : 0,
            "byteLength" : 3588,
            "byteOffset" : 17324
        },
        {
            "buffer" : 0,
            "byteLength" : 2392,
            "byteOffset" : 20912
        },
        {
            "buffer" : 0,
            "byteLength" : 2904,
            "byteOffset" : 23304
        },
        {
            "buffer" : 0,
            "byteLength" : 33948,
            "byteOffset" : 26208
        },
        {
            "buffer" : 0,
            "byteLength" : 33948,
            "byteOffset" : 60156
        },
        {
            "buffer" : 0,
            "byteLength" : 22632,
            "byteOffset" : 94104
        },
        {
            "buffer" : 0,
            "byteLength" : 32208,
            "byteOffset" : 116736
        },
        {
            "buffer" : 0,
            "byteLength" : 15456,
            "byteOffset" : 148944
        },
        {
            "buffer" : 0,
            "byteLength" : 15456,
            "byteOffset" : 164400
        },
        {
            "buffer" : 0,
            "byteLength" : 10304,
            "byteOffset" : 179856
        },
        {
            "buffer" : 0,
            "byteLength" : 14256,
            "byteOffset" : 190160
        },
        {
            "buffer" : 0,
            "byteLength" : 66792,
            "byteOffset" : 204416
        },
        {
            "buffer" : 0,
            "byteLength" : 66792,
            "byteOffset" : 271208
        },
        {
            "buffer" : 0,
            "byteLength" : 44528,
            "byteOffset" : 338000
        },
        {
            "buffer" : 0,
            "byteLength" : 61776,
            "byteOffset" : 382528
        }
    ],
    "buffers" : [
        {
            "byteLength" : 444304,
            "uri" : "data:application/octet-stream;base64,"
        }
    ]
}
