{
    "asset" : {
        "generator" : "Khronos glTF Blender I/O v1.3.48",
        "version" : "2.0"
    },
    "scene" : 0,
    "scenes" : [
        {
            "name" : "Scene",
            "nodes" : [
                0
            ]
        }
    ],
    "nodes" : [
        {
            "mesh" : 0,
            "name" : "Cube",
            "translation" : [
                -0.003190174698829651,
                0.785922646522522,
                -0.0004427542444318533
            ]
        }
    ],
    "materials" : [
        {
            "doubleSided" : true,
            "emissiveFactor" : [
                0,
                0,
                0
            ],
            "name" : "Material",
            "pbrMetallicRoughness" : {
                "baseColorFactor" : [
                    0.14728102087974548,
                    0.048135269433259964,
                    0,
                    1
                ],
                "metallicFactor" : 0.8865247964859009,
                "roughnessFactor" : 0.28652483224868774
            }
        },
        {
            "doubleSided" : true,
            "emissiveFactor" : [
                0,
                0,
                0
            ],
            "name" : "pectoralis",
            "pbrMetallicRoughness" : {
                "baseColorFactor" : [
                    0.0019149153959006071,
                    0,
                    0.017387671396136284,
                    1
                ],
                "metallicFactor" : 0.7021276354789734,
                "roughnessFactor" : 0.14539006352424622
            }
        },
        {
            "doubleSided" : true,
            "emissiveFactor" : [
                0,
                0,
                0
            ],
            "name" : "abdominal",
            "pbrMetallicRoughness" : {
                "baseColorFactor" : [
                    0.07308660447597504,
                    0.1064375787973404,
                    0.22658415138721466,
                    1
                ],
                "metallicFactor" : 0.9078013896942139,
                "roughnessFactor" : 0.5
            }
        },
        {
            "doubleSided" : true,
            "emissiveFactor" : [
                0,
                0,
                0
            ],
            "name" : "akantha",
            "pbrMetallicRoughness" : {
                "baseColorFactor" : [
                    0,
                    0.01045137271285057,
                    0.012216899544000626,
                    1
                ],
                "metallicFactor" : 0,
                "roughnessFactor" : 0.5
            }
        }
    ],
    "meshes" : [
        {
            "name" : "Cube",
            "primitives" : [
                {
                    "attributes" : {
                        "POSITION" : 0,
                        "NORMAL" : 1,
                        "TEXCOORD_0" : 2
                    },
                    "indices" : 3,
                    "material" : 0
                },
                {
                    "attributes" : {
                        "POSITION" : 4,
                        "NORMAL" : 5,
                        "TEXCOORD_0" : 6
                    },
                    "indices" : 7,
                    "material" : 1
                },
                {
                    "attributes" : {
                        "POSITION" : 8,
                        "NORMAL" : 9,
                        "TEXCOORD_0" : 10
                    },
                    "indices" : 11,
                    "material" : 2
                },
                {
                    "attributes" : {
                        "POSITION" : 12,
                        "NORMAL" : 13,
                        "TEXCOORD_0" : 14
                    },
                    "indices" : 15,
                    "material" : 3
                }
            ]
        }
    ],
    "accessors" : [
        {
            "bufferView" : 0,
            "componentType" : 5126,
            "count" : 118,
            "max" : [
                0.5259961485862732,
                3.531447410583496,
                1.452844500541687
            ],
            "min" : [
                -1.2067903280258179,
                -1.3973695039749146,
                -1.4519590139389038
            ],
            "type" : "VEC3"
        },
        {
            "bufferView" : 1,
            "componentType" : 5126,
            "count" : 118,
            "type" : "VEC3"
        },
        {
            "bufferView" : 2,
            "componentType" : 5126,
            "count" : 118,
            "type" : "VEC2"
        },
        {
            "bufferView" : 3,
            "componentType" : 5123,
            "count" : 174,
            "type" : "SCALAR"
        },
        {
            "bufferView" : 4,
            "componentType" : 5126,
            "count" : 188,
            "max" : [
                1.1940879821777344,
                3.3946475982666016,
                1.6750922203063965
            ],
            "min" : [
                -1.1007015705108643,
                0.49615228176116943,
                -1.6742067337036133
            ],
            "type" : "VEC3"
        },
        {
            "bufferView" : 5,
            "componentType" : 5126,
            "count" : 188,
            "type" : "VEC3"
        },
        {
            "bufferView" : 6,
            "componentType" : 5126,
            "count" : 188,
            "type" : "VEC2"
        },
        {
            "bufferView" : 7,
            "componentType" : 5123,
            "count" : 300,
            "type" : "SCALAR"
        },
        {
            "bufferView" : 8,
            "componentType" : 5126,
            "count" : 130,
            "max" : [
                0.6596975326538086,
                0.5082257986068726,
                1.1365045309066772
            ],
            "min" : [
                -0.7794685363769531,
                -1.3749252557754517,
                -1.135619044303894
            ],
            "type" : "VEC3"
        },
        {
            "bufferView" : 9,
            "componentType" : 5126,
            "count" : 130,
            "type" : "VEC3"
        },
        {
            "bufferView" : 10,
            "componentType" : 5126,
            "count" : 130,
            "type" : "VEC2"
        },
        {
            "bufferView" : 11,
            "componentType" : 5123,
            "count" : 198,
            "type" : "SCALAR"
        },
        {
            "bufferView" : 12,
            "componentType" : 5126,
            "count" : 72,
            "max" : [
                0.6331290602684021,
                3.531447410583496,
                1.3642194271087646
            ],
            "min" : [
                -0.7876161336898804,
                3.1640472412109375,
                -1.3633339405059814
            ],
            "type" : "VEC3"
        },
        {
            "bufferView" : 13,
            "componentType" : 5126,
            "count" : 72,
            "type" : "VEC3"
        },
        {
            "bufferView" : 14,
            "componentType" : 5126,
            "count" : 72,
            "type" : "VEC2"
        },
        {
            "bufferView" : 15,
            "componentType" : 5123,
            "count" : 108,
            "type" : "SCALAR"
        }
    ],
    "bufferViews" : [
        {
            "buffer" : 0,
            "byteLength" : 1416,
            "byteOffset" : 0
        },
        {
            "buffer" : 0,
            "byteLength" : 1416,
            "byteOffset" : 1416
        },
        {
            "buffer" : 0,
            "byteLength" : 944,
            "byteOffset" : 2832
        },
        {
            "buffer" : 0,
            "byteLength" : 348,
            "byteOffset" : 3776
        },
        {
            "buffer" : 0,
            "byteLength" : 2256,
            "byteOffset" : 4124
        },
        {
            "buffer" : 0,
            "byteLength" : 2256,
            "byteOffset" : 6380
        },
        {
            "buffer" : 0,
            "byteLength" : 1504,
            "byteOffset" : 8636
        },
        {
            "buffer" : 0,
            "byteLength" : 600,
            "byteOffset" : 10140
        },
        {
            "buffer" : 0,
            "byteLength" : 1560,
            "byteOffset" : 10740
        },
        {
            "buffer" : 0,
            "byteLength" : 1560,
            "byteOffset" : 12300
        },
        {
            "buffer" : 0,
            "byteLength" : 1040,
            "byteOffset" : 13860
        },
        {
            "buffer" : 0,
            "byteLength" : 396,
            "byteOffset" : 14900
        },
        {
            "buffer" : 0,
            "byteLength" : 864,
            "byteOffset" : 15296
        },
        {
            "buffer" : 0,
            "byteLength" : 864,
            "byteOffset" : 16160
        },
        {
            "buffer" : 0,
            "byteLength" : 576,
            "byteOffset" : 17024
        },
        {
            "buffer" : 0,
            "byteLength" : 216,
            "byteOffset" : 17600
        }
    ],
    "buffers" : [
        {
            "byteLength" : 17816,
            "uri" : "data:application/octet-stream;base64,"
        }
    ]
}
