{
    "asset" : {
        "generator" : "Khronos glTF Blender I/O v1.2.75",
        "version" : "2.0"
    },
    "scene" : 0,
    "scenes" : [
        {
            "name" : "Scene",
            "nodes" : [
                0,
                1,
                2,
                3,
                4,
                5,
                6,
                7,
                8,
                9,
                10,
                11
            ]
        }
    ],
    "nodes" : [
        {
            "mesh" : 0,
            "name" : "door_laser",
            "scale" : [
                0.1179407462477684,
                4.686212062835693,
                0.1179407462477684
            ],
            "translation" : [
                -0.6056880950927734,
                0,
                0
            ]
        },
        {
            "mesh" : 1,
            "name" : "floor",
            "scale" : [
                8.604338645935059,
                -0.32644253969192505,
                13.57283878326416
            ],
            "translation" : [
                -1.7234162092208862,
                -4.055369853973389,
                -10.44503116607666
            ]
        },
        {
            "mesh" : 2,
            "name" : "wall",
            "scale" : [
                8.604338645935059,
                -0.32644253969192505,
                13.57283878326416
            ],
            "translation" : [
                -1.7234162092208862,
                7.415678977966309,
                -10.44503116607666
            ]
        },
        {
            "mesh" : 3,
            "name" : "window",
            "scale" : [
                0.015635689720511436,
                1.1849722862243652,
                -0.06194121763110161
            ],
            "translation" : [
                -10.963508605957031,
                4.177798748016357,
                -16.87315559387207
            ]
        },
        {
            "mesh" : 4,
            "name" : "bed",
            "scale" : [
                2.055540084838867,
                0.41206681728363037,
                -3.113842010498047
            ],
            "translation" : [
                -8.696694374084473,
                -1.5136260986328125,
                -7.298651218414307
            ]
        },
        {
            "mesh" : 5,
            "name" : "bed_legs",
            "rotation" : [
                0,
                0,
                -0.4309028387069702,
                0.9023983478546143
            ],
            "scale" : [
                0.13074585795402527,
                1,
                0.09074294567108154
            ],
            "translation" : [
                -9.533163070678711,
                -2.4487218856811523,
                -9.486772537231445
            ]
        },
        {
            "mesh" : 6,
            "name" : "pillow",
            "rotation" : [
                0,
                0,
                -0.7071067690849304,
                0.7071067690849304
            ],
            "scale" : [
                0.22501610219478607,
                0.9966647028923035,
                0.766563355922699
            ],
            "translation" : [
                -8.627436637878418,
                -1.137569785118103,
                -5.51350736618042
            ]
        },
        {
            "mesh" : 7,
            "name" : "floor_bcg",
            "scale" : [
                26.031740188598633,
                -0.32644253969192505,
                13.57283878326416
            ],
            "translation" : [
                -0.35341620445251465,
                -4.115371227264404,
                16.667879104614258
            ]
        },
        {
            "mesh" : 8,
            "name" : "door_metal",
            "scale" : [
                0.22017547488212585,
                0.22017547488212585,
                0.22017547488212585
            ],
            "translation" : [
                1.3852026462554932,
                -3.6176490783691406,
                0.015207767486572266
            ]
        },
        {
            "mesh" : 9,
            "name" : "Plane",
            "rotation" : [
                0.7071067690849304,
                0,
                0,
                0.7071067690849304
            ],
            "scale" : [
                35.733055114746094,
                1,
                -13.253000259399414
            ],
            "translation" : [
                -10.963508605957031,
                0.8850822448730469,
                27.143505096435547
            ]
        },
        {
            "mesh" : 10,
            "name" : "FENCE.002",
            "scale" : [
                1.4799998998641968,
                11.169920921325684,
                1.4800000190734863
            ],
            "translation" : [
                10.442710876464844,
                3.672644853591919,
                55.25225067138672
            ]
        },
        {
            "name" : "Point",
            "translation" : [
                -1.4480342864990234,
                0.8836120367050171,
                -0.7162768840789795
            ]
        }
    ],
    "materials" : [
        {
            "doubleSided" : true,
            "emissiveFactor" : [
                0.07322808355093002,
                0.003058689646422863,
                0.0024673594161868095
            ],
            "name" : "Material.001",
            "pbrMetallicRoughness" : {
                "baseColorFactor" : [
                    0.8000000715255737,
                    0,
                    0.000499908288475126,
                    1
                ],
                "metallicFactor" : 0,
                "roughnessFactor" : 0
            }
        }
    ],
    "meshes" : [
        {
            "name" : "Cylinder.003",
            "primitives" : [
                {
                    "attributes" : {
                        "POSITION" : 0,
                        "NORMAL" : 1,
                        "TEXCOORD_0" : 2
                    },
                    "indices" : 3,
                    "material" : 0
                }
            ]
        },
        {
            "name" : "Cube.001",
            "primitives" : [
                {
                    "attributes" : {
                        "POSITION" : 4,
                        "NORMAL" : 5,
                        "TEXCOORD_0" : 6
                    },
                    "indices" : 7
                }
            ]
        },
        {
            "name" : "Cube.007",
            "primitives" : [
                {
                    "attributes" : {
                        "POSITION" : 8,
                        "NORMAL" : 9,
                        "TEXCOORD_0" : 10
                    },
                    "indices" : 11
                }
            ]
        },
        {
            "name" : "Cylinder.008",
            "primitives" : [
                {
                    "attributes" : {
                        "POSITION" : 12,
                        "NORMAL" : 13,
                        "TEXCOORD_0" : 14
                    },
                    "indices" : 15
                }
            ]
        },
        {
            "name" : "Cube.011",
            "primitives" : [
                {
                    "attributes" : {
                        "POSITION" : 16,
                        "NORMAL" : 17,
                        "TEXCOORD_0" : 18
                    },
                    "indices" : 19
                }
            ]
        },
        {
            "name" : "Cube.013",
            "primitives" : [
                {
                    "attributes" : {
                        "POSITION" : 20,
                        "NORMAL" : 21,
                        "TEXCOORD_0" : 22
                    },
                    "indices" : 23
                }
            ]
        },
        {
            "name" : "Cylinder.013",
            "primitives" : [
                {
                    "attributes" : {
                        "POSITION" : 24,
                        "NORMAL" : 25,
                        "TEXCOORD_0" : 26
                    },
                    "indices" : 27
                }
            ]
        },
        {
            "name" : "Cube.014",
            "primitives" : [
                {
                    "attributes" : {
                        "POSITION" : 28,
                        "NORMAL" : 29,
                        "TEXCOORD_0" : 30
                    },
                    "indices" : 7
                }
            ]
        },
        {
            "name" : "Cylinder.001",
            "primitives" : [
                {
                    "attributes" : {
                        "POSITION" : 31,
                        "NORMAL" : 32,
                        "TEXCOORD_0" : 33
                    },
                    "indices" : 34
                }
            ]
        },
        {
            "name" : "Plane",
            "primitives" : [
                {
                    "attributes" : {
                        "POSITION" : 35,
                        "NORMAL" : 36,
                        "TEXCOORD_0" : 37
                    },
                    "indices" : 38
                }
            ]
        },
        {
            "name" : "Cylinder.038",
            "primitives" : [
                {
                    "attributes" : {
                        "POSITION" : 39,
                        "NORMAL" : 40,
                        "TEXCOORD_0" : 41
                    },
                    "indices" : 42
                }
            ]
        }
    ],
    "accessors" : [
        {
            "bufferView" : 0,
            "componentType" : 5126,
            "count" : 2304,
            "max" : [
                17.92395782470703,
                1,
                1
            ],
            "min" : [
                -47.039241790771484,
                -1,
                -1
            ],
            "type" : "VEC3"
        },
        {
            "bufferView" : 1,
            "componentType" : 5126,
            "count" : 2304,
            "type" : "VEC3"
        },
        {
            "bufferView" : 2,
            "componentType" : 5126,
            "count" : 2304,
            "type" : "VEC2"
        },
        {
            "bufferView" : 3,
            "componentType" : 5123,
            "count" : 4464,
            "type" : "SCALAR"
        },
        {
            "bufferView" : 4,
            "componentType" : 5126,
            "count" : 24,
            "max" : [
                1,
                1,
                1
            ],
            "min" : [
                -1,
                -1,
                -1
            ],
            "type" : "VEC3"
        },
        {
            "bufferView" : 5,
            "componentType" : 5126,
            "count" : 24,
            "type" : "VEC3"
        },
        {
            "bufferView" : 6,
            "componentType" : 5126,
            "count" : 24,
            "type" : "VEC2"
        },
        {
            "bufferView" : 7,
            "componentType" : 5123,
            "count" : 36,
            "type" : "SCALAR"
        },
        {
            "bufferView" : 8,
            "componentType" : 5126,
            "count" : 1264,
            "max" : [
                1.4806588888168335,
                51.63863754272461,
                1
            ],
            "min" : [
                -1.0929032564163208,
                -1.480062484741211,
                -1.1464989185333252
            ],
            "type" : "VEC3"
        },
        {
            "bufferView" : 9,
            "componentType" : 5126,
            "count" : 1264,
            "type" : "VEC3"
        },
        {
            "bufferView" : 10,
            "componentType" : 5126,
            "count" : 1264,
            "type" : "VEC2"
        },
        {
            "bufferView" : 11,
            "componentType" : 5123,
            "count" : 1896,
            "type" : "SCALAR"
        },
        {
            "bufferView" : 12,
            "componentType" : 5126,
            "count" : 1536,
            "max" : [
                1.0000611543655396,
                1,
                19.754241943359375
            ],
            "min" : [
                -1,
                -1,
                -23.0804443359375
            ],
            "type" : "VEC3"
        },
        {
            "bufferView" : 13,
            "componentType" : 5126,
            "count" : 1536,
            "type" : "VEC3"
        },
        {
            "bufferView" : 14,
            "componentType" : 5126,
            "count" : 1536,
            "type" : "VEC2"
        },
        {
            "bufferView" : 15,
            "componentType" : 5123,
            "count" : 2976,
            "type" : "SCALAR"
        },
        {
            "bufferView" : 16,
            "componentType" : 5126,
            "count" : 82,
            "max" : [
                1.0000005960464478,
                0.9722320437431335,
                1
            ],
            "min" : [
                -1.0000007152557373,
                -1.0000007152557373,
                -1.0000005960464478
            ],
            "type" : "VEC3"
        },
        {
            "bufferView" : 17,
            "componentType" : 5126,
            "count" : 82,
            "type" : "VEC3"
        },
        {
            "bufferView" : 18,
            "componentType" : 5126,
            "count" : 82,
            "type" : "VEC2"
        },
        {
            "bufferView" : 19,
            "componentType" : 5123,
            "count" : 132,
            "type" : "SCALAR"
        },
        {
            "bufferView" : 20,
            "componentType" : 5126,
            "count" : 48,
            "max" : [
                1.0000040531158447,
                1,
                50.22521209716797
            ],
            "min" : [
                -1,
                -1,
                -1
            ],
            "type" : "VEC3"
        },
        {
            "bufferView" : 21,
            "componentType" : 5126,
            "count" : 48,
            "type" : "VEC3"
        },
        {
            "bufferView" : 22,
            "componentType" : 5126,
            "count" : 48,
            "type" : "VEC2"
        },
        {
            "bufferView" : 23,
            "componentType" : 5123,
            "count" : 72,
            "type" : "SCALAR"
        },
        {
            "bufferView" : 24,
            "componentType" : 5126,
            "count" : 192,
            "max" : [
                1,
                1,
                1
            ],
            "min" : [
                -1,
                -1,
                -1
            ],
            "type" : "VEC3"
        },
        {
            "bufferView" : 25,
            "componentType" : 5126,
            "count" : 192,
            "type" : "VEC3"
        },
        {
            "bufferView" : 26,
            "componentType" : 5126,
            "count" : 192,
            "type" : "VEC2"
        },
        {
            "bufferView" : 27,
            "componentType" : 5123,
            "count" : 372,
            "type" : "SCALAR"
        },
        {
            "bufferView" : 28,
            "componentType" : 5126,
            "count" : 24,
            "max" : [
                1,
                1,
                1
            ],
            "min" : [
                -1,
                -1,
                -1
            ],
            "type" : "VEC3"
        },
        {
            "bufferView" : 29,
            "componentType" : 5126,
            "count" : 24,
            "type" : "VEC3"
        },
        {
            "bufferView" : 30,
            "componentType" : 5126,
            "count" : 24,
            "type" : "VEC2"
        },
        {
            "bufferView" : 31,
            "componentType" : 5126,
            "count" : 4608,
            "max" : [
                1,
                37.58567810058594,
                1
            ],
            "min" : [
                -34.746070861816406,
                -1,
                -1
            ],
            "type" : "VEC3"
        },
        {
            "bufferView" : 32,
            "componentType" : 5126,
            "count" : 4608,
            "type" : "VEC3"
        },
        {
            "bufferView" : 33,
            "componentType" : 5126,
            "count" : 4608,
            "type" : "VEC2"
        },
        {
            "bufferView" : 34,
            "componentType" : 5123,
            "count" : 8928,
            "type" : "SCALAR"
        },
        {
            "bufferView" : 35,
            "componentType" : 5126,
            "count" : 32,
            "max" : [
                1,
                0,
                1
            ],
            "min" : [
                -1,
                0,
                -1
            ],
            "type" : "VEC3"
        },
        {
            "bufferView" : 36,
            "componentType" : 5126,
            "count" : 32,
            "type" : "VEC3"
        },
        {
            "bufferView" : 37,
            "componentType" : 5126,
            "count" : 32,
            "type" : "VEC2"
        },
        {
            "bufferView" : 38,
            "componentType" : 5123,
            "count" : 99,
            "type" : "SCALAR"
        },
        {
            "bufferView" : 39,
            "componentType" : 5126,
            "count" : 1838,
            "max" : [
                1,
                1.0000001192092896,
                1.0000039339065552
            ],
            "min" : [
                -24.179452896118164,
                -1.0000001192092896,
                -1
            ],
            "type" : "VEC3"
        },
        {
            "bufferView" : 40,
            "componentType" : 5126,
            "count" : 1838,
            "type" : "VEC3"
        },
        {
            "bufferView" : 41,
            "componentType" : 5126,
            "count" : 1838,
            "type" : "VEC2"
        },
        {
            "bufferView" : 42,
            "componentType" : 5123,
            "count" : 3528,
            "type" : "SCALAR"
        }
    ],
    "bufferViews" : [
        {
            "buffer" : 0,
            "byteLength" : 27648,
            "byteOffset" : 0
        },
        {
            "buffer" : 0,
            "byteLength" : 27648,
            "byteOffset" : 27648
        },
        {
            "buffer" : 0,
            "byteLength" : 18432,
            "byteOffset" : 55296
        },
        {
            "buffer" : 0,
            "byteLength" : 8928,
            "byteOffset" : 73728
        },
        {
            "buffer" : 0,
            "byteLength" : 288,
            "byteOffset" : 82656
        },
        {
            "buffer" : 0,
            "byteLength" : 288,
            "byteOffset" : 82944
        },
        {
            "buffer" : 0,
            "byteLength" : 192,
            "byteOffset" : 83232
        },
        {
            "buffer" : 0,
            "byteLength" : 72,
            "byteOffset" : 83424
        },
        {
            "buffer" : 0,
            "byteLength" : 15168,
            "byteOffset" : 83496
        },
        {
            "buffer" : 0,
            "byteLength" : 15168,
            "byteOffset" : 98664
        },
        {
            "buffer" : 0,
            "byteLength" : 10112,
            "byteOffset" : 113832
        },
        {
            "buffer" : 0,
            "byteLength" : 3792,
            "byteOffset" : 123944
        },
        {
            "buffer" : 0,
            "byteLength" : 18432,
            "byteOffset" : 127736
        },
        {
            "buffer" : 0,
            "byteLength" : 18432,
            "byteOffset" : 146168
        },
        {
            "buffer" : 0,
            "byteLength" : 12288,
            "byteOffset" : 164600
        },
        {
            "buffer" : 0,
            "byteLength" : 5952,
            "byteOffset" : 176888
        },
        {
            "buffer" : 0,
            "byteLength" : 984,
            "byteOffset" : 182840
        },
        {
            "buffer" : 0,
            "byteLength" : 984,
            "byteOffset" : 183824
        },
        {
            "buffer" : 0,
            "byteLength" : 656,
            "byteOffset" : 184808
        },
        {
            "buffer" : 0,
            "byteLength" : 264,
            "byteOffset" : 185464
        },
        {
            "buffer" : 0,
            "byteLength" : 576,
            "byteOffset" : 185728
        },
        {
            "buffer" : 0,
            "byteLength" : 576,
            "byteOffset" : 186304
        },
        {
            "buffer" : 0,
            "byteLength" : 384,
            "byteOffset" : 186880
        },
        {
            "buffer" : 0,
            "byteLength" : 144,
            "byteOffset" : 187264
        },
        {
            "buffer" : 0,
            "byteLength" : 2304,
            "byteOffset" : 187408
        },
        {
            "buffer" : 0,
            "byteLength" : 2304,
            "byteOffset" : 189712
        },
        {
            "buffer" : 0,
            "byteLength" : 1536,
            "byteOffset" : 192016
        },
        {
            "buffer" : 0,
            "byteLength" : 744,
            "byteOffset" : 193552
        },
        {
            "buffer" : 0,
            "byteLength" : 288,
            "byteOffset" : 194296
        },
        {
            "buffer" : 0,
            "byteLength" : 288,
            "byteOffset" : 194584
        },
        {
            "buffer" : 0,
            "byteLength" : 192,
            "byteOffset" : 194872
        },
        {
            "buffer" : 0,
            "byteLength" : 55296,
            "byteOffset" : 195064
        },
        {
            "buffer" : 0,
            "byteLength" : 55296,
            "byteOffset" : 250360
        },
        {
            "buffer" : 0,
            "byteLength" : 36864,
            "byteOffset" : 305656
        },
        {
            "buffer" : 0,
            "byteLength" : 17856,
            "byteOffset" : 342520
        },
        {
            "buffer" : 0,
            "byteLength" : 384,
            "byteOffset" : 360376
        },
        {
            "buffer" : 0,
            "byteLength" : 384,
            "byteOffset" : 360760
        },
        {
            "buffer" : 0,
            "byteLength" : 256,
            "byteOffset" : 361144
        },
        {
            "buffer" : 0,
            "byteLength" : 198,
            "byteOffset" : 361400
        },
        {
            "buffer" : 0,
            "byteLength" : 22056,
            "byteOffset" : 361600
        },
        {
            "buffer" : 0,
            "byteLength" : 22056,
            "byteOffset" : 383656
        },
        {
            "buffer" : 0,
            "byteLength" : 14704,
            "byteOffset" : 405712
        },
        {
            "buffer" : 0,
            "byteLength" : 7056,
            "byteOffset" : 420416
        }
    ],
    "buffers" : [
        {
            "byteLength" : 427472,
            "uri" : "data:application/octet-stream;base64,"
        }
    ]
}
